<?xml version="1.0" encoding="utf-8"?>
<!-- Generator: Adobe Illustrator 16.0.4, SVG Export Plug-In . SVG Version: 6.00 Build 0)  -->
<!DOCTYPE svg PUBLIC "-//W3C//DTD SVG 1.1//EN" "http://www.w3.org/Graphics/SVG/1.1/DTD/svg11.dtd">
<svg version="1.1" id="Layer_1" xmlns="http://www.w3.org/2000/svg" xmlns:xlink="http://www.w3.org/1999/xlink" x="0px" y="0px"
	 width="60px" height="200px" viewBox="0 0 60 200" enable-background="new 0 0 60 200" xml:space="preserve">
<polygon fill="#E0E0E0" points="47,200 13,200 3,0 57,0 "/>
<path fill="#FFD26E" d="M46.5,45.25C38.214,46.223,29.5,39.5,22,39c-3.174-0.211-7.827,0.34-12.554,1.271L16.189,190.5h27.621
	l6.533-145.549C48.866,45.03,47.56,45.125,46.5,45.25z"/>
<path fill="#FFECCA" d="M31,24.75c-5.39-0.359-15.042,1.477-22.086,3.651l0.533,11.87C14.173,39.34,18.826,38.789,22,39
	c7.5,0.5,16.214,7.223,24.5,6.25c1.06-0.125,2.366-0.22,3.844-0.299l0.633-14.102C44.104,29.741,37.145,25.16,31,24.75z"/>
</svg>
