<?xml version="1.0" encoding="utf-8"?>
<!-- Generator: Adobe Illustrator 16.0.4, SVG Export Plug-In . SVG Version: 6.00 Build 0)  -->
<!DOCTYPE svg PUBLIC "-//W3C//DTD SVG 1.1//EN" "http://www.w3.org/Graphics/SVG/1.1/DTD/svg11.dtd">
<svg version="1.1" id="Layer_1" xmlns="http://www.w3.org/2000/svg" xmlns:xlink="http://www.w3.org/1999/xlink" x="0px" y="0px"
	 width="60px" height="200px" viewBox="0 0 60 200" enable-background="new 0 0 60 200" xml:space="preserve">
<rect x="17.208" fill="#255E00" width="25.584" height="200"/>
<rect x="16.937" y="18.25" fill="#D6BC00" width="26.125" height="5.5"/>
<rect x="16.937" y="28.5" fill="#D6BC00" width="26.125" height="5.5"/>
<rect x="16.937" y="164.5" fill="#D6BC00" width="26.125" height="5.5"/>
<rect x="16.937" y="174.75" fill="#D6BC00" width="26.125" height="5.5"/>
<path fill="none" stroke="#D6BC00" stroke-miterlimit="10" d="M29.184,61.25c3.456,0,2.909,4.727,0.908,4.909
	c-2,0.182-1.453,2.182-0.908,2.727c0.545,0.545,1.997-5.091,0.998-5.272c-0.998-0.182-2.918,10-1.504,10.363
	c1.414,0.364,2.42-0.182,3.008,0s-0.021-3.108-1.754-2.182c-1.734,0.927-2.943,5.818-1.756,6.728
	c1.189,0.909,2.426,1.454,1.626,4.545c-0.801,3.091-1.018,6,0,6c1.019,0,4.291,4.545,1.2,4c-3.091-0.545-2.914,4-1.002,4
	c1.912,0-0.64,4.182,0,6.182"/>
<path fill="none" stroke="#D6BC00" stroke-miterlimit="10" d="M29.184,85.98c3.456,0,2.909,4.727,0.908,4.909
	c-2,0.182-1.453,2.182-0.908,2.727c0.545,0.545,1.997-5.091,0.998-5.272c-0.998-0.182-2.918,10-1.504,10.363
	c1.414,0.363,2.42-0.182,3.008,0s-0.021-3.108-1.754-2.182c-1.734,0.927-2.943,5.818-1.756,6.728
	c1.189,0.909,2.426,1.454,1.626,4.546c-0.801,3.09-1.018,6,0,6c1.019,0,4.291,4.545,1.2,4c-3.091-0.546-2.914,4-1.002,4
	c1.912,0-0.64,4.182,0,6.182"/>
</svg>
