<?xml version="1.0" encoding="utf-8"?>
<!-- Generator: Adobe Illustrator 16.0.4, SVG Export Plug-In . SVG Version: 6.00 Build 0)  -->
<!DOCTYPE svg PUBLIC "-//W3C//DTD SVG 1.1//EN" "http://www.w3.org/Graphics/SVG/1.1/DTD/svg11.dtd">
<svg version="1.1" id="Layer_1" xmlns="http://www.w3.org/2000/svg" xmlns:xlink="http://www.w3.org/1999/xlink" x="0px" y="0px"
	 width="60px" height="200px" viewBox="0 0 60 200" enable-background="new 0 0 60 200" xml:space="preserve">
<rect x="6.166" fill="#994100" width="47.668" height="200"/>
<rect x="4" fill="#592400" width="52" height="7.833"/>
<rect x="4" y="54.125" fill="#592400" width="52" height="3.917"/>
<rect x="4" y="100.791" fill="#592400" width="52" height="3.917"/>
<rect x="4" y="147.458" fill="#592400" width="52" height="3.916"/>
<rect x="4" y="194.125" fill="#592400" width="52" height="3.916"/>
<rect x="2.875" fill="#491D00" width="54.25" height="5.5"/>
<g>
	<rect x="15.25" y="19.25" fill="#FFF797" stroke="#491D00" stroke-miterlimit="10" width="10.25" height="27"/>
	<rect x="34.75" y="19.25" fill="#FFF797" stroke="#491D00" stroke-miterlimit="10" width="10.25" height="27"/>
</g>
<g>
	<rect x="15.25" y="65.5" fill="#FFF797" stroke="#491D00" stroke-miterlimit="10" width="10.25" height="27"/>
	<rect x="34.75" y="65.5" fill="#FFF797" stroke="#491D00" stroke-miterlimit="10" width="10.25" height="27"/>
</g>
<g>
	<rect x="15.25" y="111.75" fill="#FFF797" stroke="#491D00" stroke-miterlimit="10" width="10.25" height="27"/>
	<rect x="34.75" y="111.75" fill="#FFF797" stroke="#491D00" stroke-miterlimit="10" width="10.25" height="27"/>
</g>
<g>
	<rect x="15.25" y="158" fill="#FFF797" stroke="#491D00" stroke-miterlimit="10" width="10.25" height="27"/>
	<rect x="34.75" y="158" fill="#FFF797" stroke="#491D00" stroke-miterlimit="10" width="10.25" height="27"/>
</g>
</svg>
