<?xml version="1.0" encoding="utf-8"?>
<!-- Generator: Adobe Illustrator 16.0.4, SVG Export Plug-In . SVG Version: 6.00 Build 0)  -->
<!DOCTYPE svg PUBLIC "-//W3C//DTD SVG 1.1//EN" "http://www.w3.org/Graphics/SVG/1.1/DTD/svg11.dtd">
<svg version="1.1" id="Layer_1" xmlns="http://www.w3.org/2000/svg" xmlns:xlink="http://www.w3.org/1999/xlink" x="0px" y="0px"
	 width="60px" height="200px" viewBox="0 0 60 200" enable-background="new 0 0 60 200" xml:space="preserve">
<path fill="#FFE000" d="M59.125,152.5V17.649c0-9.748-7.163-17.649-16-17.649h-26.25c-8.836,0-16,7.902-16,17.649V152.5H59.125z"/>
<g>
	<path d="M13.615,12.921l0.715-0.153c0.034,0.702,0.113,1.277,0.236,1.728s0.316,0.813,0.576,1.091s0.553,0.417,0.879,0.417
		c0.289,0,0.544-0.105,0.766-0.316c0.221-0.21,0.386-0.499,0.494-0.866s0.162-0.767,0.162-1.201c0-0.44-0.052-0.824-0.156-1.153
		s-0.276-0.604-0.516-0.828c-0.154-0.147-0.494-0.374-1.02-0.684s-0.895-0.602-1.105-0.875c-0.273-0.351-0.477-0.786-0.611-1.306
		c-0.134-0.521-0.201-1.102-0.201-1.747c0-0.708,0.082-1.37,0.246-1.986s0.404-1.083,0.719-1.402
		c0.315-0.32,0.666-0.479,1.051-0.479c0.424,0,0.799,0.167,1.123,0.502c0.324,0.335,0.574,0.827,0.748,1.478
		c0.174,0.651,0.268,1.388,0.281,2.211l-0.727,0.134c-0.039-0.886-0.171-1.556-0.396-2.01s-0.558-0.679-0.998-0.679
		c-0.458,0-0.792,0.206-1.002,0.617s-0.314,0.908-0.314,1.488c0,0.503,0.074,0.918,0.223,1.244c0.146,0.325,0.527,0.659,1.143,1
		c0.616,0.341,1.039,0.64,1.268,0.895c0.333,0.377,0.58,0.853,0.738,1.431c0.159,0.577,0.238,1.243,0.238,1.995
		c0,0.747-0.087,1.45-0.262,2.11c-0.174,0.661-0.425,1.174-0.752,1.541s-0.695,0.55-1.104,0.55c-0.518,0-0.953-0.185-1.303-0.555
		c-0.35-0.369-0.625-0.927-0.824-1.67S13.625,13.858,13.615,12.921z"/>
	<path d="M23.295,12.509l0.758,0.47c-0.159,1.525-0.445,2.688-0.857,3.488c-0.413,0.801-0.917,1.201-1.514,1.201
		c-0.617,0-1.119-0.307-1.506-0.924c-0.387-0.616-0.681-1.507-0.883-2.674s-0.303-2.421-0.303-3.761
		c0-1.461,0.114-2.736,0.342-3.823s0.552-1.915,0.973-2.479c0.42-0.564,0.883-0.846,1.389-0.846c0.573,0,1.055,0.357,1.445,1.071
		c0.391,0.715,0.663,1.719,0.816,3.015l-0.746,0.431c-0.133-1.021-0.326-1.765-0.578-2.23s-0.57-0.699-0.953-0.699
		c-0.44,0-0.808,0.258-1.104,0.775c-0.295,0.517-0.503,1.21-0.623,2.082c-0.12,0.871-0.18,1.769-0.18,2.694
		c0,1.192,0.071,2.234,0.213,3.124c0.142,0.891,0.363,1.556,0.662,1.996c0.299,0.44,0.624,0.66,0.973,0.66
		c0.424,0,0.784-0.3,1.078-0.9C22.992,14.58,23.191,13.69,23.295,12.509z"/>
	<path d="M25.01,17.429V3.398h0.758V9.16h2.977V3.398h0.758v14.03h-0.758v-6.613h-2.977v6.613H25.01z"/>
	<path d="M30.533,10.595c0-2.329,0.256-4.152,0.766-5.469c0.511-1.317,1.169-1.976,1.977-1.976c0.528,0,1.005,0.31,1.43,0.929
		c0.425,0.618,0.748,1.481,0.971,2.588c0.223,1.106,0.334,2.362,0.334,3.766c0,1.422-0.117,2.695-0.352,3.819
		c-0.234,1.123-0.566,1.972-0.996,2.55c-0.43,0.577-0.894,0.866-1.391,0.866c-0.539,0-1.021-0.32-1.445-0.957
		c-0.425-0.638-0.746-1.508-0.965-2.612C30.643,12.994,30.533,11.826,30.533,10.595z M31.314,10.624c0,1.69,0.186,3.023,0.557,3.996
		c0.371,0.973,0.837,1.459,1.396,1.459c0.57,0,1.04-0.492,1.408-1.474c0.368-0.982,0.553-2.376,0.553-4.182
		c0-1.143-0.079-2.139-0.236-2.991c-0.157-0.852-0.388-1.512-0.691-1.981s-0.644-0.704-1.021-0.704
		c-0.536,0-0.998,0.451-1.385,1.354C31.508,7.006,31.314,8.513,31.314,10.624z"/>
	<path d="M36.756,10.595c0-2.329,0.255-4.152,0.766-5.469S38.69,3.15,39.498,3.15c0.528,0,1.005,0.31,1.43,0.929
		c0.425,0.618,0.748,1.481,0.971,2.588c0.223,1.106,0.334,2.362,0.334,3.766c0,1.422-0.117,2.695-0.352,3.819
		c-0.234,1.123-0.566,1.972-0.996,2.55c-0.43,0.577-0.894,0.866-1.391,0.866c-0.539,0-1.021-0.32-1.445-0.957
		c-0.425-0.638-0.746-1.508-0.965-2.612C36.865,12.994,36.756,11.826,36.756,10.595z M37.537,10.624c0,1.69,0.186,3.023,0.557,3.996
		c0.371,0.973,0.837,1.459,1.396,1.459c0.57,0,1.04-0.492,1.408-1.474c0.368-0.982,0.553-2.376,0.553-4.182
		c0-1.143-0.079-2.139-0.236-2.991c-0.157-0.852-0.388-1.512-0.691-1.981s-0.644-0.704-1.021-0.704
		c-0.536,0-0.998,0.451-1.385,1.354C37.73,7.006,37.537,8.513,37.537,10.624z"/>
	<path d="M43.178,17.429V3.398h0.758v12.374h2.82v1.656H43.178z"/>
</g>
<ellipse fill="#FF0000" stroke="#000000" stroke-miterlimit="10" cx="8.75" cy="12.367" rx="2.875" ry="4.992"/>
<ellipse fill="#FF0000" stroke="#000000" stroke-miterlimit="10" cx="51.25" cy="12.367" rx="2.875" ry="4.992"/>
<ellipse fill="#FF0000" stroke="#000000" stroke-miterlimit="10" cx="7.75" cy="121.75" rx="2.875" ry="5.25"/>
<ellipse fill="#FF0000" stroke="#000000" stroke-miterlimit="10" cx="52.25" cy="121.75" rx="2.875" ry="5.25"/>
<path d="M19.344,71.35c0,0.773-0.448,1.4-1,1.4H6.219c-0.552,0-1-0.627-1-1.4v-25.2c0-0.773,0.448-1.4,1-1.4h12.125
	c0.552,0,1,0.627,1,1.4V71.35z"/>
<path d="M54.781,71.35c0,0.773-0.447,1.4-1,1.4H41.656c-0.553,0-1-0.627-1-1.4v-25.2c0-0.773,0.447-1.4,1-1.4h12.125
	c0.553,0,1,0.627,1,1.4V71.35z"/>
<path d="M37.062,71.475c0,0.704-0.447,1.275-1,1.275H23.938c-0.553,0-1-0.571-1-1.275v-22.95c0-0.704,0.447-1.275,1-1.275h12.125
	c0.553,0,1,0.571,1,1.275V71.475z"/>
<path d="M37.062,118.5c0,0.483-0.447,0.875-1,0.875H23.938c-0.553,0-1-0.392-1-0.875v-15.75c0-0.483,0.447-0.875,1-0.875h12.125
	c0.553,0,1,0.392,1,0.875V118.5z"/>
<g>
	<path d="M37.964,45.75C37.979,45.77,38,45.812,38,45.877v75.246c0,0.078-0.03,0.123-0.009,0.127l-15.944,0.012
		c-0.01-0.007-0.047-0.052-0.047-0.139V45.877c0-0.079,0.03-0.123,0.008-0.127H37.964 M38,44.75H22c-0.552,0-1,0.505-1,1.127v75.246
		c0,0.622,0.448,1.127,1,1.127h16c0.553,0,1-0.505,1-1.127V45.877C39,45.255,38.553,44.75,38,44.75L38,44.75z"/>
</g>
<path d="M8.75,199.23c0,0.426-0.448,0.77-1,0.77H1.875c-0.552,0-1-0.344-1-0.77V153.27c0-0.426,0.448-0.77,1-0.77H7.75
	c0.552,0,1,0.344,1,0.77V199.23z"/>
<path d="M18.25,199.23c0,0.426-0.448,0.77-1,0.77h-5.875c-0.552,0-1-0.344-1-0.77V153.27c0-0.426,0.448-0.77,1-0.77h5.875
	c0.552,0,1,0.344,1,0.77V199.23z"/>
<path d="M48.531,199.23c0,0.426-0.447,0.77-1,0.77h-5.875c-0.553,0-1-0.344-1-0.77V153.27c0-0.426,0.447-0.77,1-0.77h5.875
	c0.553,0,1,0.344,1,0.77V199.23z"/>
<path d="M58.031,199.23c0,0.426-0.447,0.77-1,0.77h-5.875c-0.553,0-1-0.344-1-0.77V153.27c0-0.426,0.447-0.77,1-0.77h5.875
	c0.553,0,1,0.344,1,0.77V199.23z"/>
<path d="M58.031,140.5c0,0.553-0.447,1-1,1H3.25c-0.552,0-1-0.447-1-1v-9.25c0-0.553,0.448-1,1-1h53.781c0.553,0,1,0.447,1,1V140.5z
	"/>
<line fill="none" stroke="#000000" stroke-width="2" stroke-linecap="round" stroke-miterlimit="10" x1="2.25" y1="31" x2="58.031" y2="31"/>
<line fill="none" stroke="#000000" stroke-width="2" stroke-linecap="round" stroke-miterlimit="10" x1="44.25" y1="108.5" x2="58.031" y2="108.5"/>
<ellipse fill="#FF0000" stroke="#000000" stroke-miterlimit="10" cx="44.25" cy="121.75" rx="2.875" ry="5.25"/>
<ellipse fill="#FF0000" stroke="#000000" stroke-miterlimit="10" cx="15.75" cy="121.75" rx="2.875" ry="5.25"/>
<line fill="none" stroke="#000000" stroke-width="2" stroke-linecap="round" stroke-miterlimit="10" x1="2.25" y1="108.5" x2="15.75" y2="108.5"/>
</svg>
