<?xml version="1.0" encoding="utf-8"?>
<!-- Generator: Adobe Illustrator 16.0.4, SVG Export Plug-In . SVG Version: 6.00 Build 0)  -->
<!DOCTYPE svg PUBLIC "-//W3C//DTD SVG 1.1//EN" "http://www.w3.org/Graphics/SVG/1.1/DTD/svg11.dtd">
<svg version="1.1" id="Layer_1" xmlns="http://www.w3.org/2000/svg" xmlns:xlink="http://www.w3.org/1999/xlink" x="0px" y="0px"
	 width="40px" height="200px" viewBox="0 0 40 200" enable-background="new 0 0 40 200" xml:space="preserve">
<rect x="15.833" y="28" fill="#446046" width="9.143" height="172"/>
<path fill="#446046" d="M15.833,30c0-9.546-2.812-30,4.454-30c7.266,0,4.688,25.091,4.688,30"/>
<path fill="#446046" d="M24.419,37.727c4.243-0.271,8.462,0,8.695-5.182c0.234-5.182,0-9.273,2.346-9.273
	c2.344,0,3.75,4.91,3.516,13.364c-0.233,8.455-12.591,6.851-14.731,7.108"/>
<path fill="#446046" d="M16.833,49.346c-5.089,0-8.204-0.513-8.672-5.838c-0.469-5.326-1.875-9.145-4.687-8.871
	c-2.813,0.272-2.579,7.09-2.344,13.09c0.234,6.002,7.199,8.293,15.703,7.474"/>
</svg>
