<?xml version="1.0" encoding="utf-8"?>
<!-- Generator: Adobe Illustrator 16.0.4, SVG Export Plug-In . SVG Version: 6.00 Build 0)  -->
<!DOCTYPE svg PUBLIC "-//W3C//DTD SVG 1.1//EN" "http://www.w3.org/Graphics/SVG/1.1/DTD/svg11.dtd">
<svg version="1.1" id="Layer_1" xmlns="http://www.w3.org/2000/svg" xmlns:xlink="http://www.w3.org/1999/xlink" x="0px" y="0px"
	 width="60px" height="200px" viewBox="0 0 60 200" enable-background="new 0 0 60 200" xml:space="preserve">
<path fill="none" stroke="#000000" stroke-width="4" stroke-miterlimit="10" d="M29.998,1.856C18.198,1.856,2.581,200,2.581,200
	h54.838C57.419,200,41.07,1.856,29.998,1.856z"/>
<path fill="#EAEAEA" d="M21.622,27.724h16.457c-2.797-15.712-5.573-25.868-8.081-25.868C27.327,1.856,24.459,12.012,21.622,27.724z"
	/>
<path fill="#FFCC00" d="M2.581,200h54.838c0,0-1.988-24.095-5.047-55.478H7.454C4.48,175.905,2.581,200,2.581,200z"/>
<path fill="#FF8B00" d="M21.623,27.724c-5.325,29.49-10.545,78.555-14.169,116.799h44.918
	c-3.728-38.244-9.046-87.309-14.295-116.799H21.623z"/>
</svg>
