<?xml version="1.0" encoding="utf-8"?>
<!-- Generator: Adobe Illustrator 16.0.4, SVG Export Plug-In . SVG Version: 6.00 Build 0)  -->
<!DOCTYPE svg PUBLIC "-//W3C//DTD SVG 1.1//EN" "http://www.w3.org/Graphics/SVG/1.1/DTD/svg11.dtd">
<svg version="1.1" id="Layer_1" xmlns="http://www.w3.org/2000/svg" xmlns:xlink="http://www.w3.org/1999/xlink" x="0px" y="0px"
	 width="80px" height="200px" viewBox="0 0 80 200" enable-background="new 0 0 80 200" xml:space="preserve">
<linearGradient id="SVGID_1_" gradientUnits="userSpaceOnUse" x1="39.8643" y1="200" x2="39.8643" y2="9.765625e-04" gradientTransform="matrix(-1 0 0 -1 79.8643 200)">
	<stop  offset="0" style="stop-color:#FFCE6B"/>
	<stop  offset="1" style="stop-color:#E9A422"/>
</linearGradient>
<rect x="1.63" fill="url(#SVGID_1_)" width="76.739" height="200"/>
<linearGradient id="SVGID_2_" gradientUnits="userSpaceOnUse" x1="6.0044" y1="200" x2="6.0044" y2="4.882812e-04">
	<stop  offset="0" style="stop-color:#FFC53F"/>
	<stop  offset="1" style="stop-color:#E9A422"/>
</linearGradient>
<rect x="1.63" fill="url(#SVGID_2_)" width="8.748" height="200"/>
<linearGradient id="SVGID_3_" gradientUnits="userSpaceOnUse" x1="146.1074" y1="124.584" x2="146.1074" y2="65.3398" gradientTransform="matrix(4.371139e-08 1 -1 4.371139e-08 134.9634 -139.7339)">
	<stop  offset="0" style="stop-color:#FFC53F"/>
	<stop  offset="1" style="stop-color:#E9A422"/>
</linearGradient>
<rect x="10.378" y="-0.001" fill="url(#SVGID_3_)" width="59.245" height="12.747"/>
<linearGradient id="SVGID_4_" gradientUnits="userSpaceOnUse" x1="333.3613" y1="124.584" x2="333.3613" y2="65.3398" gradientTransform="matrix(4.371139e-08 1 -1 4.371139e-08 134.9634 -139.7339)">
	<stop  offset="0" style="stop-color:#FFC53F"/>
	<stop  offset="1" style="stop-color:#E9A422"/>
</linearGradient>
<rect x="10.378" y="187.254" fill="url(#SVGID_4_)" width="59.245" height="12.746"/>
<linearGradient id="SVGID_5_" gradientUnits="userSpaceOnUse" x1="239.7344" y1="124.584" x2="239.7344" y2="65.3398" gradientTransform="matrix(4.371139e-08 1 -1 4.371139e-08 134.9634 -139.7339)">
	<stop  offset="0" style="stop-color:#FFC53F"/>
	<stop  offset="1" style="stop-color:#E9A422"/>
</linearGradient>
<rect x="10.378" y="93.627" fill="url(#SVGID_5_)" width="59.245" height="12.746"/>
<linearGradient id="SVGID_6_" gradientUnits="userSpaceOnUse" x1="69.623" y1="100" x2="78.3691" y2="100">
	<stop  offset="0" style="stop-color:#FFC53F"/>
	<stop  offset="1" style="stop-color:#E9A422"/>
</linearGradient>
<rect x="69.623" fill="url(#SVGID_6_)" width="8.746" height="200"/>
<g>
	<path fill="#E61E25" d="M14.146,27.064c0-0.822,0.012-0.955-0.408-1.199c-0.156-0.088-0.264-0.289-0.264-0.6
		c0-0.645,0.396-0.689,0.444-0.689h3.167v14.129c0,0.822-0.012,0.955,0.408,1.199c0.156,0.089,0.264,0.29,0.264,0.601
		c0,0.644-0.396,0.688-0.444,0.688h-3.394c-0.048,0-0.444-0.044-0.444-0.688c0-0.311,0.108-0.511,0.264-0.601
		c0.419-0.244,0.408-0.377,0.408-1.199V27.064z M17.624,24.576h2.674v4.509c0,0.111-0.012,0.534-0.372,0.534
		c-0.204,0-0.264-0.223-0.324-0.555c-0.312-1.8-0.924-2.888-1.979-3.199V24.576z M17.624,31.996
		c0.504-0.244,0.731-1.111,0.839-1.955c0.06-0.378,0.132-0.733,0.384-0.733c0.372,0,0.312,0.799,0.312,0.978v4.798
		c0,0.178,0.06,0.978-0.312,0.978c-0.252,0-0.324-0.355-0.384-0.734c-0.108-0.844-0.335-1.71-0.839-1.954V31.996z"/>
	<path fill="#E61E25" d="M21.826,27.064c0-0.822,0.012-0.955-0.408-1.199c-0.156-0.088-0.264-0.289-0.264-0.6
		c0-0.645,0.396-0.689,0.444-0.689h3.166v14.129c0,0.822-0.012,0.955,0.408,1.199c0.156,0.089,0.264,0.29,0.264,0.601
		c0,0.644-0.396,0.688-0.444,0.688h-3.394c-0.048,0-0.444-0.044-0.444-0.688c0-0.311,0.108-0.511,0.264-0.601
		c0.419-0.244,0.408-0.377,0.408-1.199V27.064z M25.304,24.576h0.06c0.779,0,1.595-0.044,2.314,0.6
		c0.804,0.733,1.211,1.955,1.223,3.644c0.024,2.554-0.887,3.665-2.11,4.199v0.044c1.067,0.289,2.086,0.867,2.11,3.222v1.955
		c0,0.2-0.036,0.644,0.12,0.644c0.192,0,0.228-0.644,0.516-0.644c0.156,0,0.348,0.333,0.348,0.644c0,0.645-0.396,1.467-0.66,1.844
		c-0.408,0.622-0.84,0.799-1.355,0.799s-0.983-0.244-1.355-0.933c-0.42-0.799-0.48-1.777-0.48-2.822v-1.51
		c0-1.022-0.012-2.266-0.731-2.399v-1.311c0.647-0.111,0.731-0.844,0.731-1.933v-2.688c0-1.111-0.132-1.644-0.731-2.044V24.576z"/>
	<path fill="#E61E25" d="M32.925,30.197l-1.127,7.598c-0.192,1.354-0.024,1.732,0.384,2.065c0.192,0.156,0.36,0.29,0.36,0.733
		c0,0.623-0.384,0.6-0.624,0.6h-1.379c-0.24,0-0.671-0.022-0.671-0.667c0-0.533,0.204-0.511,0.467-0.755
		c0.252-0.245,0.576-0.755,0.804-2.333l1.439-9.752h0.036L32.925,30.197z M34.208,36.883h-1.751l0.168-1.289h1.463l-1.211-9.818
		l0.156-1.2h2.65l1.799,14.04c0.072,0.623,0.084,1.044,0.419,1.311c0.168,0.133,0.3,0.289,0.3,0.688
		c0,0.601-0.432,0.578-0.659,0.578h-2.987c-0.24,0-0.587-0.044-0.587-0.622c0-0.355,0.072-0.467,0.228-0.622
		c0.312-0.333,0.359-0.489,0.251-1.355L34.208,36.883z"/>
	<path fill="#E61E25" d="M41.684,38.194c0,0.8,0.098,1.733,0.576,2.044v1.288c-2.086-0.11-3.694-3.887-3.694-8.641
		c0-4.776,1.607-8.553,3.694-8.642v1.288c-0.479,0.311-0.576,1.222-0.576,2.022V38.194z M42.799,40.238
		c0.529-0.289,0.553-1.044,0.553-1.421v-3.999c0-0.489-0.012-0.601-0.492-0.756c-0.191-0.088-0.311-0.289-0.311-0.666
		c0-0.601,0.418-0.622,0.479-0.622h2.867c0.059,0,0.42-0.067,0.42,0.667c0,0.377-0.109,0.533-0.217,0.667
		c-0.252,0.289-0.215,0.555-0.215,0.666v4.399c-0.84,1.399-1.943,2.31-3.084,2.354V40.238z M42.799,24.243
		c1.26,0.2,1.908,0.822,2.039,0.822c0.361,0,0.324-0.822,0.709-0.822c0.359,0,0.336,0.6,0.336,0.711v4.954c0,0.111,0,0.8-0.373,0.8
		c-0.311,0-0.395-0.422-0.455-0.889c-0.371-2.843-1.283-4.198-2.256-4.288V24.243z"/>
	<path fill="#E61E25" d="M50.791,38.705c0,0.822-0.012,0.955,0.408,1.199c0.156,0.089,0.264,0.29,0.264,0.601
		c0,0.644-0.395,0.688-0.443,0.688h-3.395c-0.047,0-0.443-0.044-0.443-0.688c0-0.311,0.107-0.511,0.264-0.601
		c0.42-0.244,0.408-0.377,0.408-1.199V27.064c0-0.822,0.012-0.955-0.408-1.199c-0.156-0.088-0.264-0.289-0.264-0.6
		c0-0.645,0.396-0.689,0.443-0.689h3.395c0.049,0,0.443,0.044,0.443,0.689c0,0.311-0.107,0.511-0.264,0.6
		c-0.42,0.244-0.408,0.377-0.408,1.199V38.705z"/>
	<path fill="#E61E25" d="M56.096,41.193H52.93c-0.047,0-0.443-0.044-0.443-0.688c0-0.311,0.107-0.511,0.264-0.601
		c0.42-0.244,0.408-0.377,0.408-1.199V27.064c0-0.822,0.012-0.955-0.408-1.199c-0.156-0.088-0.264-0.289-0.264-0.6
		c0-0.645,0.396-0.689,0.443-0.689h3.395c0.047,0,0.443,0.044,0.443,0.689c0,0.311-0.107,0.511-0.264,0.6
		c-0.42,0.244-0.408,0.377-0.408,1.199V41.193z M56.637,39.904c0.971-0.244,1.521-1.799,1.773-3.866
		c0.061-0.488,0.205-0.621,0.457-0.621c0.275,0,0.299,0.421,0.299,0.844v4.932h-2.529V39.904z"/>
	<path fill="#E61E25" d="M60.059,24.576h3.166v16.617h-3.166c-0.049,0-0.445-0.044-0.445-0.688c0-0.311,0.109-0.511,0.266-0.601
		c0.418-0.244,0.406-0.377,0.406-1.199V27.064c0-0.822,0.012-0.955-0.406-1.199c-0.156-0.088-0.266-0.289-0.266-0.6
		C59.613,24.62,60.01,24.576,60.059,24.576z M63.764,24.576h2.674v4.509c0,0.111-0.012,0.534-0.371,0.534
		c-0.203,0-0.264-0.223-0.324-0.555c-0.311-1.8-0.924-2.888-1.979-3.199V24.576z M63.764,31.996c0.504-0.244,0.732-1.111,0.84-1.955
		c0.061-0.378,0.131-0.733,0.383-0.733c0.373,0,0.312,0.799,0.312,0.978v4.798c0,0.178,0.061,0.978-0.312,0.978
		c-0.252,0-0.322-0.355-0.383-0.734c-0.107-0.844-0.336-1.71-0.84-1.954V31.996z M63.764,39.904
		c0.971-0.222,1.715-1.443,2.039-3.221c0.084-0.334,0.156-0.689,0.371-0.689c0.385,0,0.348,0.667,0.348,0.755v4.443h-2.758V39.904z"
		/>
</g>
<g>
	<rect x="37.217" y="49.468" fill="#E61E25" width="5.566" height="12.326"/>
	<polygon fill="#E61E25" points="40,44.547 35.08,49.468 44.92,49.468 	"/>
</g>
</svg>
