<?xml version="1.0" encoding="utf-8"?>
<!-- Generator: Adobe Illustrator 16.0.4, SVG Export Plug-In . SVG Version: 6.00 Build 0)  -->
<!DOCTYPE svg PUBLIC "-//W3C//DTD SVG 1.1//EN" "http://www.w3.org/Graphics/SVG/1.1/DTD/svg11.dtd">
<svg version="1.1" id="Layer_1" xmlns="http://www.w3.org/2000/svg" xmlns:xlink="http://www.w3.org/1999/xlink" x="0px" y="0px"
	 width="60px" height="200px" viewBox="0 0 60 200" enable-background="new 0 0 60 200" xml:space="preserve">
<path fill="#FFB888" d="M6.5,200C5.75,152,7,95.5,6.5,72.5S5.75,0,32.25,0s21.5,46.75,21.5,52.5s2,122.75,2.5,147.5H6.5z"/>
<path fill="#FFE8D9" d="M32.25,0c-6.452,0-11.314,2.939-14.978,7.711C18.5,14,13.754,31.75,31.252,31.25S46.365,12.902,46.058,6.451
	C42.845,2.517,38.396,0,32.25,0z"/>
<path fill="#FFCCA9" d="M32.25,4.5c-6.452,0-11.314,2.939-14.978,7.711C18.5,18.5,13.754,36.25,31.252,35.75
	s15.113-18.348,14.806-24.799C42.845,7.017,38.396,4.5,32.25,4.5z"/>
<path fill="none" stroke="#FFAA71" stroke-miterlimit="10" d="M22.25,68c8.75-2,14-1.75,17,0"/>
<path fill="none" stroke="#FFAA71" stroke-miterlimit="10" d="M19.5,143.965c12.739-2,20.382-1.75,24.75,0"/>
<path fill="none" stroke="#FFAA71" stroke-miterlimit="10" d="M21,148.5c7.25,0.5,8.25-2,11.75-1.5s11.17,1.633,13.585,1.566"/>
<path fill="none" stroke="#FFAA71" stroke-miterlimit="10" d="M22.75,152c3.75,0.75,16.75,1,19.75,0"/>
</svg>
