<?xml version="1.0" encoding="utf-8"?>
<!-- Generator: Adobe Illustrator 16.0.4, SVG Export Plug-In . SVG Version: 6.00 Build 0)  -->
<!DOCTYPE svg PUBLIC "-//W3C//DTD SVG 1.1//EN" "http://www.w3.org/Graphics/SVG/1.1/DTD/svg11.dtd">
<svg version="1.1" id="Layer_1" xmlns="http://www.w3.org/2000/svg" xmlns:xlink="http://www.w3.org/1999/xlink" x="0px" y="0px"
	 width="60px" height="200px" viewBox="0 0 60 200" enable-background="new 0 0 60 200" xml:space="preserve">
<rect fill="#828282" width="3.969" height="200"/>
<rect x="4.017" width="54.192" height="37.5"/>
<path fill="#FFFFFF" d="M31.094,5c-0.363,0.003-0.724,0.042-1.06,0.11c-3.283,0.675-5.895,3.825-5.678,7.173
	c0.128,1.988-0.01,5.141,1.957,5.807c1.311,0.443,1.237,1.178,1.689,2.298c0.449,1.114,2.006,1.221,3.101,1.283
	c0.004,0,0.004-0.001,0.01,0c0.004,0,0.014,0,0.018,0c1.096-0.062,2.643-0.169,3.094-1.283c0.451-1.121,0.377-1.855,1.688-2.298
	c1.967-0.666,1.83-3.818,1.957-5.807c0.217-3.348-2.393-6.498-5.676-7.173C31.826,5.029,31.457,4.996,31.094,5z M27.974,13.179
	c0.562,0.005,1.099,0.113,1.468,0.286c0.455,0.213,0.537,0.562,0.535,1.338c0,0.78-0.393,1.689-1.486,2.031
	c-0.791,0.248-2.574-0.091-2.898-1.181c-0.158-0.535-0.107-1.13,0.129-1.588C26.051,13.426,27.04,13.169,27.974,13.179z
	 M34.25,13.179c0.936-0.01,1.924,0.248,2.254,0.886c0.236,0.458,0.287,1.053,0.129,1.588c-0.324,1.09-2.107,1.429-2.898,1.181
	c-1.094-0.342-1.486-1.251-1.486-2.031c0-0.777,0.08-1.125,0.535-1.338C33.152,13.292,33.689,13.184,34.25,13.179z M31.104,16.308
	c0.254-0.001,0.479,0.176,0.6,0.388c0.164,0.404,0.303,0.813,0.461,1.219c0.166,0.321,0.27,0.784-0.102,1.006
	c-0.379,0.279-0.818-0.045-1.227,0.083c-0.441,0.166-1.042-0.174-0.923-0.692c0.141-0.435,0.324-0.859,0.48-1.292
	C30.491,16.682,30.705,16.312,31.104,16.308z M21.624,18.893c-0.285,0.012-0.595,0.088-0.914,0.231
	c-0.608,0.271-0.821,0.499-0.868,1.181c-0.06,0.877,1.531,0.653,0.425,2.216c-0.811,1.144,0.695,1.954,1.532,1.828
	c1.459-0.221,2.91-0.107,4.237,0.342c0.752,0.254,1.502,0.505,2.252,0.766c-1.85,0.6-3.691,1.123-5.52,1.514
	c-0.706,0.149-1.516-0.201-2.17,0.092c-0.415,0.187-0.656,0.734-0.738,1.246c-0.141,0.889,0.729,1.38,0.822,2.354
	c0.132,1.379,1.705,1.042,2.279,0.083c0.705-1.175,1.889-1.861,3.102-2.354c1.669-0.677,3.357-1.314,5.05-1.929
	c1.691,0.614,3.381,1.252,5.049,1.929c1.215,0.494,2.396,1.18,3.102,2.354c0.574,0.958,2.148,1.296,2.279-0.083
	c0.094-0.974,0.963-1.465,0.822-2.354c-0.08-0.512-0.324-1.059-0.738-1.246c-0.654-0.293-1.463,0.057-2.17-0.092
	c-1.828-0.391-3.67-0.914-5.52-1.514c0.75-0.26,1.5-0.512,2.252-0.766c1.326-0.449,2.779-0.562,4.238-0.342
	c0.836,0.126,2.342-0.684,1.531-1.828c-1.107-1.562,0.484-1.338,0.426-2.216c-0.047-0.683-0.26-0.91-0.869-1.181
	c-1.277-0.571-2.268-0.077-3.119,1.338c-0.854,1.415-1.846,1.842-2.789,2.243c-1.496,0.631-2.994,1.23-4.494,1.782
	c-1.5-0.552-3-1.151-4.496-1.782c-0.943-0.401-1.935-0.828-2.789-2.243C23.19,19.4,22.479,18.856,21.624,18.893z"/>
</svg>
