<?xml version="1.0" encoding="utf-8"?>
<!-- Generator: Adobe Illustrator 16.0.4, SVG Export Plug-In . SVG Version: 6.00 Build 0)  -->
<!DOCTYPE svg PUBLIC "-//W3C//DTD SVG 1.1//EN" "http://www.w3.org/Graphics/SVG/1.1/DTD/svg11.dtd">
<svg version="1.1" id="Layer_1" xmlns="http://www.w3.org/2000/svg" xmlns:xlink="http://www.w3.org/1999/xlink" x="0px" y="0px"
	 width="60px" height="200px" viewBox="0 0 60 200" enable-background="new 0 0 60 200" xml:space="preserve">
<rect x="2.25" fill="#E21010" width="55.5" height="200"/>
<g>
	<g opacity="0.75">
		<circle fill="#960000" cx="43.5" cy="39.875" r="7.125"/>
	</g>
	<g>
		<circle fill="#E21010" cx="42.5" cy="38.875" r="7.125"/>
	</g>
</g>
<g>
	<g opacity="0.75">
		<circle fill="#960000" cx="43.5" cy="14.875" r="7.125"/>
	</g>
	<g>
		<circle fill="#E21010" cx="42.5" cy="13.875" r="7.125"/>
	</g>
</g>
<g>
	<g opacity="0.75">
		<circle fill="#960000" cx="18.5" cy="39.875" r="7.125"/>
	</g>
	<g>
		<circle fill="#E21010" cx="17.5" cy="38.875" r="7.125"/>
	</g>
</g>
<g>
	<g opacity="0.75">
		<circle fill="#960000" cx="18.5" cy="14.875" r="7.125"/>
	</g>
	<g>
		<circle fill="#E21010" cx="17.5" cy="13.875" r="7.125"/>
	</g>
</g>
<g>
	<g opacity="0.75">
		<circle fill="#960000" cx="43.5" cy="64.875" r="7.125"/>
	</g>
	<g>
		<circle fill="#E21010" cx="42.5" cy="63.875" r="7.125"/>
	</g>
</g>
<g>
	<g opacity="0.75">
		<circle fill="#960000" cx="18.5" cy="64.875" r="7.125"/>
	</g>
	<g>
		<circle fill="#E21010" cx="17.5" cy="63.875" r="7.125"/>
	</g>
</g>
<g>
	<g opacity="0.75">
		<circle fill="#960000" cx="43.5" cy="89.875" r="7.125"/>
	</g>
	<g>
		<circle fill="#E21010" cx="42.5" cy="88.875" r="7.125"/>
	</g>
</g>
<g>
	<g opacity="0.75">
		<circle fill="#960000" cx="18.5" cy="89.875" r="7.125"/>
	</g>
	<g>
		<circle fill="#E21010" cx="17.5" cy="88.875" r="7.125"/>
	</g>
</g>
<g>
	<g opacity="0.75">
		<circle fill="#960000" cx="43.5" cy="114.875" r="7.125"/>
	</g>
	<g>
		<circle fill="#E21010" cx="42.5" cy="113.875" r="7.125"/>
	</g>
</g>
<g>
	<g opacity="0.75">
		<circle fill="#960000" cx="18.5" cy="114.875" r="7.125"/>
	</g>
	<g>
		<circle fill="#E21010" cx="17.5" cy="113.875" r="7.125"/>
	</g>
</g>
<g>
	<g opacity="0.75">
		<circle fill="#960000" cx="43.5" cy="139.875" r="7.125"/>
	</g>
	<g>
		<circle fill="#E21010" cx="42.5" cy="138.875" r="7.125"/>
	</g>
</g>
<g>
	<g opacity="0.75">
		<circle fill="#960000" cx="18.5" cy="139.875" r="7.125"/>
	</g>
	<g>
		<circle fill="#E21010" cx="17.5" cy="138.875" r="7.125"/>
	</g>
</g>
<g>
	<g opacity="0.75">
		<circle fill="#960000" cx="43.5" cy="164.875" r="7.125"/>
	</g>
	<g>
		<circle fill="#E21010" cx="42.5" cy="163.875" r="7.125"/>
	</g>
</g>
<g>
	<g opacity="0.75">
		<circle fill="#960000" cx="18.5" cy="164.875" r="7.125"/>
	</g>
	<g>
		<circle fill="#E21010" cx="17.5" cy="163.875" r="7.125"/>
	</g>
</g>
<g>
	<g opacity="0.75">
		<circle fill="#960000" cx="43.5" cy="189.875" r="7.125"/>
	</g>
	<g>
		<circle fill="#E21010" cx="42.5" cy="188.875" r="7.125"/>
	</g>
</g>
<g>
	<g opacity="0.75">
		<circle fill="#960000" cx="18.5" cy="189.875" r="7.125"/>
	</g>
	<g>
		<circle fill="#E21010" cx="17.5" cy="188.875" r="7.125"/>
	</g>
</g>
</svg>
