<?xml version="1.0" encoding="utf-8"?>
<!-- Generator: Adobe Illustrator 16.0.4, SVG Export Plug-In . SVG Version: 6.00 Build 0)  -->
<!DOCTYPE svg PUBLIC "-//W3C//DTD SVG 1.1//EN" "http://www.w3.org/Graphics/SVG/1.1/DTD/svg11.dtd">
<svg version="1.1" id="Layer_1" xmlns="http://www.w3.org/2000/svg" xmlns:xlink="http://www.w3.org/1999/xlink" x="0px" y="0px"
	 width="60px" height="200px" viewBox="0 0 60 200" enable-background="new 0 0 60 200" xml:space="preserve">
<path fill="#F4DFB5" d="M21.262,6.448c-2.5,0.66-2.613,3.253-1.688,8.403S22.25,91,22,102s0.75,78.5-3.25,98h21
	c-4-29.75-2.75-65.5-2.5-94.5s-0.75-74.25,3.5-88.75s-6.5-9.018-6.5-9.018L21.262,6.448z"/>
<path fill="#DB0000" d="M40.782,18.926c8.407,0,19.218-2.26,19.218-9.039C60,6.779,54.297,0,49.193,0c-5.105,0-9.912,0-17.42,0
	c-7.507,0-15.415,0-20.52,0C6.148,0,1.446,3.107,0.245,5.367c-1.201,2.26,2.015,7.918,9.608,10.169S32.374,18.926,40.782,18.926z"/>
<circle fill="#FFF9F0" cx="16.5" cy="5.25" r="3.25"/>
<circle fill="#FFF9F0" cx="45.75" cy="5.75" r="3"/>
<circle fill="#FFF9F0" cx="29.25" cy="8.5" r="3.75"/>
<circle fill="#FFF9F0" cx="39.875" cy="14.625" r="2.875"/>
<circle fill="#FFF9F0" cx="18.125" cy="14.125" r="2.375"/>
<path fill="#FFF9F0" d="M57.984,5.473C57.516,6.519,56.471,7.25,55.25,7.25c-1.656,0-3-1.343-3-3c0-1.152,0.657-2.141,1.61-2.644
	C55.449,2.637,56.895,4.043,57.984,5.473z"/>
<path fill="#FFF9F0" d="M0.184,5.53c0.022-0.053,0.035-0.113,0.062-0.164c0.73-1.374,2.758-3.057,5.38-4.168
	C6.741,1.848,7.5,3.043,7.5,4.428c0,2.071-1.679,3.75-3.75,3.75C2.065,8.178,0.656,7.06,0.184,5.53z"/>
</svg>
