<?xml version="1.0" encoding="utf-8"?>
<!-- Generator: Adobe Illustrator 16.0.4, SVG Export Plug-In . SVG Version: 6.00 Build 0)  -->
<!DOCTYPE svg PUBLIC "-//W3C//DTD SVG 1.1//EN" "http://www.w3.org/Graphics/SVG/1.1/DTD/svg11.dtd">
<svg version="1.1" id="Layer_1" xmlns="http://www.w3.org/2000/svg" xmlns:xlink="http://www.w3.org/1999/xlink" x="0px" y="0px"
	 width="60px" height="200px" viewBox="0 0 60 200" enable-background="new 0 0 60 200" xml:space="preserve">
<g>
	
		<linearGradient id="SVGID_1_" gradientUnits="userSpaceOnUse" x1="271.1387" y1="-156.5" x2="320.8613" y2="-156.5" gradientTransform="matrix(1 0 0 -1 -266 -95)">
		<stop  offset="0" style="stop-color:#D1D1D1"/>
		<stop  offset="1" style="stop-color:#3C3C3C"/>
	</linearGradient>
	<rect x="5.139" y="30" fill="url(#SVGID_1_)" width="49.723" height="63"/>
	<rect x="19.331" y="93" fill="#FFE000" width="21.338" height="107"/>
	<rect x="5.139" y="93" fill="#FFED85" width="14.192" height="107"/>
	<rect x="40.669" y="93" fill="#BA9F00" width="14.192" height="107"/>
	<path fill="#FF7673" d="M30,0C16.27,0,5.139,13.432,5.139,30h49.723C54.861,13.432,43.73,0,30,0z"/>
	
		<linearGradient id="SVGID_2_" gradientUnits="userSpaceOnUse" x1="271.1387" y1="-141.0879" x2="320.8613" y2="-141.0879" gradientTransform="matrix(1 0 0 -1 -266 -95)">
		<stop  offset="0" style="stop-color:#B8B8B8"/>
		<stop  offset="1" style="stop-color:#292929"/>
	</linearGradient>
	<rect x="5.139" y="43.926" fill="url(#SVGID_2_)" width="49.723" height="4.324"/>
	
		<linearGradient id="SVGID_3_" gradientUnits="userSpaceOnUse" x1="271.1387" y1="-134.4121" x2="320.8613" y2="-134.4121" gradientTransform="matrix(1 0 0 -1 -266 -95)">
		<stop  offset="0" style="stop-color:#B8B8B8"/>
		<stop  offset="1" style="stop-color:#292929"/>
	</linearGradient>
	<rect x="5.139" y="37.25" fill="url(#SVGID_3_)" width="49.723" height="4.324"/>
	
		<linearGradient id="SVGID_4_" gradientUnits="userSpaceOnUse" x1="271.1387" y1="-177.3379" x2="320.8613" y2="-177.3379" gradientTransform="matrix(1 0 0 -1 -266 -95)">
		<stop  offset="0" style="stop-color:#B8B8B8"/>
		<stop  offset="1" style="stop-color:#292929"/>
	</linearGradient>
	<rect x="5.139" y="80.176" fill="url(#SVGID_4_)" width="49.723" height="4.324"/>
	
		<linearGradient id="SVGID_5_" gradientUnits="userSpaceOnUse" x1="271.1387" y1="-170.6621" x2="320.8613" y2="-170.6621" gradientTransform="matrix(1 0 0 -1 -266 -95)">
		<stop  offset="0" style="stop-color:#B8B8B8"/>
		<stop  offset="1" style="stop-color:#292929"/>
	</linearGradient>
	<rect x="5.139" y="73.5" fill="url(#SVGID_5_)" width="49.723" height="4.324"/>
</g>
</svg>
