<?xml version="1.0" encoding="utf-8"?>
<!-- Generator: Adobe Illustrator 16.0.4, SVG Export Plug-In . SVG Version: 6.00 Build 0)  -->
<!DOCTYPE svg PUBLIC "-//W3C//DTD SVG 1.1//EN" "http://www.w3.org/Graphics/SVG/1.1/DTD/svg11.dtd">
<svg version="1.1" id="Layer_1" xmlns="http://www.w3.org/2000/svg" xmlns:xlink="http://www.w3.org/1999/xlink" x="0px" y="0px"
	 width="60px" height="200px" viewBox="0 0 60 200" enable-background="new 0 0 60 200" xml:space="preserve">
<path fill="#4C4C4C" d="M58.5,189c0,6.075-4.802,11-10.725,11h-37.05C4.802,200,0,195.075,0,189V11C0,4.925,4.802,0,10.725,0h37.05
	C53.698,0,58.5,4.925,58.5,11V189z"/>
<g>
	<path fill="#4C4C4C" d="M1,17.833V11C1,5.486,5.363,1,10.725,1h37.05C53.138,1,57.5,5.486,57.5,11v6.833H1z"/>
	<path fill="#6B6B6B" d="M47.775,2c4.811,0,8.725,4.038,8.725,9v5.833H2V11c0-4.962,3.914-9,8.725-9H47.775 M47.775,0h-37.05
		C4.802,0,0,4.925,0,11v7.833h58.5V11C58.5,4.925,53.698,0,47.775,0L47.775,0z"/>
</g>
<g>
	<path fill="#4C4C4C" d="M10.725,199C5.363,199,1,194.514,1,189v-6.834h56.5V189c0,5.514-4.362,10-9.725,10H10.725z"/>
	<path fill="#6B6B6B" d="M56.5,183.166V189c0,4.963-3.914,9-8.725,9h-37.05C5.914,198,2,193.963,2,189v-5.834H56.5 M58.5,181.166H0
		V189c0,6.074,4.802,11,10.725,11h37.05c5.923,0,10.725-4.926,10.725-11V181.166L58.5,181.166z"/>
</g>
<circle fill="#003833" stroke="#232323" stroke-miterlimit="10" cx="10.667" cy="9.667" r="3.167"/>
<circle fill="#232323" cx="18.546" cy="9.417" r="1.225"/>
<circle fill="#B5B5B5" cx="26.333" cy="9.417" r="3.25"/>
</svg>
