<?xml version="1.0" encoding="utf-8"?>
<!-- Generator: Adobe Illustrator 16.0.4, SVG Export Plug-In . SVG Version: 6.00 Build 0)  -->
<!DOCTYPE svg PUBLIC "-//W3C//DTD SVG 1.1//EN" "http://www.w3.org/Graphics/SVG/1.1/DTD/svg11.dtd">
<svg version="1.1" id="Layer_1" xmlns="http://www.w3.org/2000/svg" xmlns:xlink="http://www.w3.org/1999/xlink" x="0px" y="0px"
	 width="60px" height="200px" viewBox="0 0 60 200" enable-background="new 0 0 60 200" xml:space="preserve">
<polygon fill="#4A0099" points="57.782,180.818 59.954,194.951 29.998,0 2.217,180.818 "/>
<linearGradient id="SVGID_1_" gradientUnits="userSpaceOnUse" x1="30.0415" y1="180.8184" x2="30.0415" y2="199.6455">
	<stop  offset="0" style="stop-color:#CC9933"/>
	<stop  offset="1" style="stop-color:#7F4E00"/>
</linearGradient>
<path fill="url(#SVGID_1_)" d="M60.038,194.949l-0.086-0.011l-2.17-14.12H2.217l-2.171,14.133c6.268,0,2.985,4.694,7.163,4.694
	c4.179,0,3.283-4.563,4.924-4.694c1.642-0.13,3.88,4.173,6.865,4.173c2.973,0,1.654-4.141,4.3-4.173h0.059
	c2.659,0.032,3.261,3.913,5.938,3.913c2.676,0,0.321-3.881,3.25-3.913h0.066c2.935,0.032,1.323,3.781,4.443,3.781
	s1.51-3.749,5.181-3.781h0.084c3.67,0.032,1.767,3.913,5.778,3.913c4.013,0,1.221-3.881,3.114-3.913h0.044
	c1.911,0.032,1.633,3.652,5.497,3.652C60.635,198.604,56.307,194.949,60.038,194.949z"/>
<g>
	<polygon fill="#C49645" points="59.954,194.951 59.206,190.086 59.206,190.085 	"/>
	<path fill="#C49645" d="M50.952,136.366l-7.87,13.301l-8.165-13.8l8.165-13.796l7.663,12.947l-5.978-38.901l-1.686,2.848
		l-8.165-13.798l6.484-10.958l-5.976-38.882l-0.509-0.861l0.3-0.506l-2.818-18.34l-4.316,7.294l-1.273-2.153l-5.688,37.021
		l6.961-11.764l8.165,13.799l-8.165,13.799l-7.458-12.604l-2.818,18.341l3.44,5.814l-5.854,9.892l-4.794,31.207l2.483-4.196
		l8.165,13.798l-8.165,13.8l-4.826-8.156l-2.818,18.342l0.809,1.366l-1.376,2.325l-2.654,17.274H8.32l4.762-8.049l4.762,8.049H38.32
		l4.762-8.047l4.762,8.047h9.938l0.566,3.686l0,0l-1.875-12.205l-6.557-11.08l3.854-6.512L50.952,136.366z M19.917,110.516
		l8.165-13.797l8.165,13.797l-8.165,13.801L19.917,110.516z M28.082,175.017l-8.165-13.798l8.165-13.801l8.165,13.801
		L28.082,175.017z"/>
</g>
</svg>
