<?xml version="1.0" encoding="utf-8"?>
<!-- Generator: Adobe Illustrator 16.0.4, SVG Export Plug-In . SVG Version: 6.00 Build 0)  -->
<!DOCTYPE svg PUBLIC "-//W3C//DTD SVG 1.1//EN" "http://www.w3.org/Graphics/SVG/1.1/DTD/svg11.dtd">
<svg version="1.1" id="Layer_1" xmlns="http://www.w3.org/2000/svg" xmlns:xlink="http://www.w3.org/1999/xlink" x="0px" y="0px"
	 width="60px" height="200px" viewBox="0 0 60 200" enable-background="new 0 0 60 200" xml:space="preserve">
<polygon fill="#4A0099" points="57.782,185.502 59.954,200.001 29.998,0 2.217,185.502 "/>
<linearGradient id="SVGID_1_" gradientUnits="userSpaceOnUse" x1="296.041" y1="-280.5024" x2="296.041" y2="-295.0015" gradientTransform="matrix(1 0 0 -1 -266 -95)">
	<stop  offset="0" style="stop-color:#CC9933"/>
	<stop  offset="1" style="stop-color:#7F4E00"/>
</linearGradient>
<path fill="url(#SVGID_1_)" d="M60.038,199.999l-0.086-0.012l-2.17-14.485H2.217l-2.171,14.499L60.038,199.999z"/>
<g>
	<line fill="#C49645" x1="59.206" y1="195.01" x2="59.206" y2="195.009"/>
	<path fill="#C49645" d="M50.952,139.898l-7.87,13.646l-8.165-14.157l8.165-14.154l7.663,13.282l-5.978-39.908l-1.687,2.921
		l-8.165-14.155L41.4,76.131l-5.977-39.889l-0.509-0.884l0.3-0.519l-2.818-18.815l-4.315,7.483l-1.273-2.209l-5.688,37.98
		l6.961-12.069l8.165,14.156l-8.165,14.157l-7.458-12.93l-2.818,18.816l3.44,5.964l-5.854,10.148l-4.794,32.015l2.483-4.304
		l8.165,14.155l-8.165,14.157l-4.826-8.367l-2.818,18.816l0.809,1.401l-1.376,2.386l-2.654,17.721H8.32l4.762-8.257l4.762,8.257
		H38.32l4.762-8.255l4.762,8.255h9.938l0.565,3.782l0,0l-1.875-12.521l-6.557-11.367l3.854-6.68L50.952,139.898z M19.917,113.378
		l8.165-14.154l8.165,14.154l-8.165,14.158L19.917,113.378z M28.082,179.551l-8.165-14.156l8.165-14.158l8.165,14.158
		L28.082,179.551z"/>
</g>
</svg>
