<?xml version="1.0" encoding="utf-8"?>
<!-- Generator: Adobe Illustrator 16.0.4, SVG Export Plug-In . SVG Version: 6.00 Build 0)  -->
<!DOCTYPE svg PUBLIC "-//W3C//DTD SVG 1.1//EN" "http://www.w3.org/Graphics/SVG/1.1/DTD/svg11.dtd">
<svg version="1.1" id="Layer_1" xmlns="http://www.w3.org/2000/svg" xmlns:xlink="http://www.w3.org/1999/xlink" x="0px" y="0px"
	 width="60px" height="200px" viewBox="0 0 60 200" enable-background="new 0 0 60 200" xml:space="preserve">
<rect x="25.839" y="151.75" fill="#E0C577" width="8.321" height="48.25"/>
<path fill="#FFB93E" d="M55.5,141.95c0,5.412-4.187,9.8-9.35,9.8h-32.3c-5.164,0-9.35-4.388-9.35-9.8V9.8C4.5,4.388,8.686,0,13.85,0
	h32.3c5.163,0,9.35,4.388,9.35,9.8V141.95z"/>
<path fill="#FFC261" d="M25.839,134.375c0,3.774-3.434,6.833-7.669,6.833l0,0c-4.236,0-7.67-3.059-7.67-6.833V17.079
	c0-3.774,3.434-6.833,7.67-6.833l0,0c4.236,0,7.669,3.059,7.669,6.833V134.375z"/>
<path fill="#FFC261" d="M49.5,134.375c0,3.774-3.434,6.833-7.67,6.833l0,0c-4.236,0-7.67-3.059-7.67-6.833V17.079
	c0-3.774,3.434-6.833,7.67-6.833l0,0c4.236,0,7.67,3.059,7.67,6.833V134.375z"/>
</svg>
