<?xml version="1.0" encoding="utf-8"?>
<!-- Generator: Adobe Illustrator 16.0.4, SVG Export Plug-In . SVG Version: 6.00 Build 0)  -->
<!DOCTYPE svg PUBLIC "-//W3C//DTD SVG 1.1//EN" "http://www.w3.org/Graphics/SVG/1.1/DTD/svg11.dtd">
<svg version="1.1" id="Layer_1" xmlns="http://www.w3.org/2000/svg" xmlns:xlink="http://www.w3.org/1999/xlink" x="0px" y="0px"
	 width="60px" height="200px" viewBox="0 0 60 200" enable-background="new 0 0 60 200" xml:space="preserve">
<linearGradient id="SVGID_1_" gradientUnits="userSpaceOnUse" x1="30.0005" y1="28.1538" x2="30.0005" y2="13.833">
	<stop  offset="0" style="stop-color:#3FA1FF"/>
	<stop  offset="1" style="stop-color:#005CBF"/>
</linearGradient>
<polygon fill="url(#SVGID_1_)" points="32.124,28.154 30,13.833 27.876,28.154 "/>
<linearGradient id="SVGID_2_" gradientUnits="userSpaceOnUse" x1="30.0005" y1="42.4741" x2="30.0005" y2="28.1538">
	<stop  offset="0" style="stop-color:#3FA1FF"/>
	<stop  offset="1" style="stop-color:#005CBF"/>
</linearGradient>
<polygon fill="url(#SVGID_2_)" points="25.75,42.474 34.25,42.474 32.124,28.154 27.875,28.154 "/>
<linearGradient id="SVGID_3_" gradientUnits="userSpaceOnUse" x1="30.0005" y1="56.7949" x2="30.0005" y2="42.4741">
	<stop  offset="0" style="stop-color:#3FA1FF"/>
	<stop  offset="1" style="stop-color:#005CBF"/>
</linearGradient>
<polygon fill="url(#SVGID_3_)" points="23.626,56.795 36.374,56.795 34.25,42.474 25.75,42.474 "/>
<linearGradient id="SVGID_4_" gradientUnits="userSpaceOnUse" x1="30.0005" y1="71.1147" x2="30.0005" y2="56.7949">
	<stop  offset="0" style="stop-color:#3FA1FF"/>
	<stop  offset="1" style="stop-color:#005CBF"/>
</linearGradient>
<polygon fill="url(#SVGID_4_)" points="21.501,71.115 38.499,71.115 36.374,56.795 23.626,56.795 "/>
<linearGradient id="SVGID_5_" gradientUnits="userSpaceOnUse" x1="30" y1="85.4355" x2="30" y2="71.1147">
	<stop  offset="0" style="stop-color:#3FA1FF"/>
	<stop  offset="1" style="stop-color:#005CBF"/>
</linearGradient>
<polygon fill="url(#SVGID_5_)" points="19.376,85.436 40.623,85.436 38.498,71.115 21.501,71.115 "/>
<linearGradient id="SVGID_6_" gradientUnits="userSpaceOnUse" x1="30.0005" y1="99.7568" x2="30.0005" y2="85.4355">
	<stop  offset="0" style="stop-color:#3FA1FF"/>
	<stop  offset="1" style="stop-color:#005CBF"/>
</linearGradient>
<polygon fill="url(#SVGID_6_)" points="17.252,99.757 42.748,99.757 40.623,85.436 19.376,85.436 "/>
<linearGradient id="SVGID_7_" gradientUnits="userSpaceOnUse" x1="30.0005" y1="114.0762" x2="30.0005" y2="99.7573">
	<stop  offset="0" style="stop-color:#3FA1FF"/>
	<stop  offset="1" style="stop-color:#005CBF"/>
</linearGradient>
<polygon fill="url(#SVGID_7_)" points="15.127,114.076 44.873,114.076 42.748,99.757 17.252,99.757 "/>
<linearGradient id="SVGID_8_" gradientUnits="userSpaceOnUse" x1="30.0005" y1="128.3965" x2="30.0005" y2="114.0762">
	<stop  offset="0" style="stop-color:#3FA1FF"/>
	<stop  offset="1" style="stop-color:#005CBF"/>
</linearGradient>
<polygon fill="url(#SVGID_8_)" points="13.002,128.396 46.998,128.396 44.873,114.076 15.126,114.076 "/>
<linearGradient id="SVGID_9_" gradientUnits="userSpaceOnUse" x1="30.0005" y1="142.7178" x2="30.0005" y2="128.3965">
	<stop  offset="0" style="stop-color:#3FA1FF"/>
	<stop  offset="1" style="stop-color:#005CBF"/>
</linearGradient>
<polygon fill="url(#SVGID_9_)" points="10.878,142.718 49.122,142.718 46.999,128.396 13.003,128.396 "/>
<linearGradient id="SVGID_10_" gradientUnits="userSpaceOnUse" x1="30.0005" y1="157.04" x2="30.0005" y2="142.7178">
	<stop  offset="0" style="stop-color:#3FA1FF"/>
	<stop  offset="1" style="stop-color:#005CBF"/>
</linearGradient>
<polygon fill="url(#SVGID_10_)" points="8.753,157.04 51.247,157.04 49.121,142.718 10.877,142.718 "/>
<linearGradient id="SVGID_11_" gradientUnits="userSpaceOnUse" x1="30.0005" y1="171.3594" x2="30.0005" y2="157.04">
	<stop  offset="0" style="stop-color:#3FA1FF"/>
	<stop  offset="1" style="stop-color:#005CBF"/>
</linearGradient>
<polygon fill="url(#SVGID_11_)" points="6.629,171.359 53.371,171.359 51.247,157.04 8.753,157.04 "/>
<linearGradient id="SVGID_12_" gradientUnits="userSpaceOnUse" x1="30.0005" y1="185.6797" x2="30.0005" y2="171.3594">
	<stop  offset="0" style="stop-color:#3FA1FF"/>
	<stop  offset="1" style="stop-color:#005CBF"/>
</linearGradient>
<polygon fill="url(#SVGID_12_)" points="4.504,185.68 55.496,185.68 53.371,171.359 6.629,171.359 "/>
<linearGradient id="SVGID_13_" gradientUnits="userSpaceOnUse" x1="30.0005" y1="200" x2="30.0005" y2="185.6797">
	<stop  offset="0" style="stop-color:#3FA1FF"/>
	<stop  offset="1" style="stop-color:#005CBF"/>
</linearGradient>
<polygon fill="url(#SVGID_13_)" points="4.503,185.68 2.379,199.997 2.379,200 57.621,200 55.496,185.68 "/>
<g>
	<polygon fill="#FFFFD7" stroke="#C10000" stroke-width="2" stroke-miterlimit="10" points="30,179.2 16.094,154.139 30,129.076 
		43.907,154.139 	"/>
	<line fill="none" stroke="#C10000" stroke-width="2" stroke-miterlimit="10" x1="30" y1="129.076" x2="30" y2="179.2"/>
	<line fill="none" stroke="#C10000" stroke-width="2" stroke-miterlimit="10" x1="43.907" y1="154.139" x2="16.094" y2="154.139"/>
</g>
<polyline fill="none" stroke="#C10000" stroke-width="4" stroke-miterlimit="10" points="57.621,200 29.999,13.833 2.379,200 "/>
</svg>
