<?xml version="1.0" encoding="utf-8"?>
<!-- Generator: Adobe Illustrator 16.0.4, SVG Export Plug-In . SVG Version: 6.00 Build 0)  -->
<!DOCTYPE svg PUBLIC "-//W3C//DTD SVG 1.1//EN" "http://www.w3.org/Graphics/SVG/1.1/DTD/svg11.dtd">
<svg version="1.1" id="Layer_1" xmlns="http://www.w3.org/2000/svg" xmlns:xlink="http://www.w3.org/1999/xlink" x="0px" y="0px"
	 width="60px" height="200px" viewBox="0 0 60 200" enable-background="new 0 0 60 200" xml:space="preserve">
<path fill="#4F824D" d="M58.5,133.75c0,5.522-4.478,10-10,10h-37c-5.523,0-10-4.478-10-10V10c0-5.523,4.477-10,10-10h37
	c5.522,0,10,4.477,10,10V133.75z"/>
<path fill="#7F644C" d="M15.25,200c0,0,5-8.5,5.5-28.25s-2.75-28-2.75-28h22.25c0,0-3.685,13.37-3.5,27
	c0.25,18.5,5.5,29.25,5.5,29.25H15.25z"/>
</svg>
