<?xml version="1.0" encoding="utf-8"?>
<!-- Generator: Adobe Illustrator 16.0.4, SVG Export Plug-In . SVG Version: 6.00 Build 0)  -->
<!DOCTYPE svg PUBLIC "-//W3C//DTD SVG 1.1//EN" "http://www.w3.org/Graphics/SVG/1.1/DTD/svg11.dtd">
<svg version="1.1" id="Layer_1" xmlns="http://www.w3.org/2000/svg" xmlns:xlink="http://www.w3.org/1999/xlink" x="0px" y="0px"
	 width="60px" height="200px" viewBox="0 0 60 200" enable-background="new 0 0 60 200" xml:space="preserve">
<g>
	<path fill="#E0C577" d="M11.7,198.5c-7.807,0-10.238-0.896-10.238-6.5V38c0-6.834,7.836-15.909,7.916-16l1.137-1.305l-1.432-0.954
		C6.963,18.33,1.462,13.738,1.462,9.5c0-3.434,1.188-8,11.457-8h34.125c4.03,0,9.993,2.225,9.993,7c0,4.964-5.447,9.415-5.503,9.459
		l-1.592,1.284l1.689,1.146c0.214,0.149,5.404,3.874,5.404,13.36v155c0,4.696-2.059,9.75-6.581,9.75L11.7,198.5L11.7,198.5z"/>
	<path fill="#634200" d="M47.044,3c3.576,0,8.531,1.911,8.531,5.5c0,3.484-3.573,7.163-4.943,8.281l-3.215,2.547l3.38,2.292
		c0.194,0.14,4.778,3.526,4.778,12.13v155c0,3.975-1.602,8.25-5.119,8.25H11.7c-2.922,0-5.829-0.111-7.297-0.923
		c-0.517-0.285-1.479-0.816-1.479-4.077V38c0-5.19,5.445-12.588,7.542-15l2.28-2.614l-2.871-1.905
		C7.609,16.976,2.925,12.8,2.925,9.5c0-1.945,0-6.5,9.994-6.5H47.044 M47.044,0c-4.875,0-25.106,0-34.125,0C3.9,0,0,3.5,0,9.5
		S8.288,21,8.288,21S0,30.5,0,38s0,146.75,0,154s4.144,8,11.7,8c0,0,33.638,0,38.756,0c5.119,0,8.044-5.25,8.044-11.25
		s0-144.5,0-155s-6.061-14.611-6.061-14.611S58.5,14.25,58.5,8.5S51.919,0,47.044,0L47.044,0z"/>
</g>
<linearGradient id="SVGID_1_" gradientUnits="userSpaceOnUse" x1="290.375" y1="-121.521" x2="299.8125" y2="-121.521" gradientTransform="matrix(1 0 0 -1 -266 -95)">
	<stop  offset="0" style="stop-color:#E7C474"/>
	<stop  offset="1" style="stop-color:#CEAA44"/>
</linearGradient>
<ellipse fill="url(#SVGID_1_)" cx="29.094" cy="26.521" rx="4.719" ry="7.907"/>
<linearGradient id="SVGID_2_" gradientUnits="userSpaceOnUse" x1="304.5469" y1="-106.2661" x2="313.9844" y2="-106.2661" gradientTransform="matrix(1 0 0 -1 -266 -95)">
	<stop  offset="0" style="stop-color:#E7C474"/>
	<stop  offset="1" style="stop-color:#CEAA44"/>
</linearGradient>
<ellipse fill="url(#SVGID_2_)" cx="43.266" cy="11.266" rx="4.719" ry="7.907"/>
<linearGradient id="SVGID_3_" gradientUnits="userSpaceOnUse" x1="279.8936" y1="-128.5" x2="286.7188" y2="-128.5" gradientTransform="matrix(1 0 0 -1 -266 -95)">
	<stop  offset="0" style="stop-color:#E7C474"/>
	<stop  offset="1" style="stop-color:#CEAA44"/>
</linearGradient>
<ellipse fill="url(#SVGID_3_)" cx="17.306" cy="33.5" rx="3.413" ry="6"/>
<linearGradient id="SVGID_4_" gradientUnits="userSpaceOnUse" x1="286.7188" y1="-137.771" x2="296.1562" y2="-137.771" gradientTransform="matrix(1 0 0 -1 -266 -95)">
	<stop  offset="0" style="stop-color:#E7C474"/>
	<stop  offset="1" style="stop-color:#CEAA44"/>
</linearGradient>
<ellipse fill="url(#SVGID_4_)" cx="25.438" cy="42.771" rx="4.719" ry="7.907"/>
<linearGradient id="SVGID_5_" gradientUnits="userSpaceOnUse" x1="274.0059" y1="-106.2661" x2="283.4434" y2="-106.2661" gradientTransform="matrix(1 0 0 -1 -266 -95)">
	<stop  offset="0" style="stop-color:#E7C474"/>
	<stop  offset="1" style="stop-color:#CEAA44"/>
</linearGradient>
<ellipse fill="url(#SVGID_5_)" cx="12.725" cy="11.266" rx="4.719" ry="7.907"/>
<linearGradient id="SVGID_6_" gradientUnits="userSpaceOnUse" x1="296.3242" y1="-144.0547" x2="302.9512" y2="-144.0547" gradientTransform="matrix(1 0 0 -1 -266 -95)">
	<stop  offset="0" style="stop-color:#E7C474"/>
	<stop  offset="1" style="stop-color:#CEAA44"/>
</linearGradient>
<ellipse fill="url(#SVGID_6_)" cx="33.638" cy="49.055" rx="3.313" ry="3.669"/>
<linearGradient id="SVGID_7_" gradientUnits="userSpaceOnUse" x1="270.9365" y1="-130.251" x2="277.5645" y2="-130.251" gradientTransform="matrix(1 0 0 -1 -266 -95)">
	<stop  offset="0" style="stop-color:#E7C474"/>
	<stop  offset="1" style="stop-color:#CEAA44"/>
</linearGradient>
<ellipse fill="url(#SVGID_7_)" cx="8.25" cy="35.251" rx="3.314" ry="3.669"/>
<linearGradient id="SVGID_8_" gradientUnits="userSpaceOnUse" x1="301.3438" y1="-139.875" x2="308.6562" y2="-139.875" gradientTransform="matrix(1 0 0 -1 -266 -95)">
	<stop  offset="0" style="stop-color:#E7C474"/>
	<stop  offset="1" style="stop-color:#CEAA44"/>
</linearGradient>
<ellipse fill="url(#SVGID_8_)" cx="39" cy="44.875" rx="3.656" ry="4.688"/>
<linearGradient id="SVGID_9_" gradientUnits="userSpaceOnUse" x1="310.083" y1="-132.5" x2="317.3955" y2="-132.5" gradientTransform="matrix(1 0 0 -1 -266 -95)">
	<stop  offset="0" style="stop-color:#E7C474"/>
	<stop  offset="1" style="stop-color:#CEAA44"/>
</linearGradient>
<ellipse fill="url(#SVGID_9_)" cx="47.739" cy="37.5" rx="3.656" ry="4.688"/>
<linearGradient id="SVGID_10_" gradientUnits="userSpaceOnUse" x1="297.9316" y1="-131.375" x2="301.3438" y2="-131.375" gradientTransform="matrix(1 0 0 -1 -266 -95)">
	<stop  offset="0" style="stop-color:#E7C474"/>
	<stop  offset="1" style="stop-color:#CEAA44"/>
</linearGradient>
<ellipse fill="url(#SVGID_10_)" cx="33.638" cy="36.375" rx="1.706" ry="3.188"/>
<linearGradient id="SVGID_11_" gradientUnits="userSpaceOnUse" x1="287.3281" y1="-103.2812" x2="293.4219" y2="-103.2812" gradientTransform="matrix(1 0 0 -1 -266 -95)">
	<stop  offset="0" style="stop-color:#E7C474"/>
	<stop  offset="1" style="stop-color:#CEAA44"/>
</linearGradient>
<ellipse fill="url(#SVGID_11_)" cx="24.375" cy="8.281" rx="3.047" ry="4.478"/>
<linearGradient id="SVGID_12_" gradientUnits="userSpaceOnUse" x1="283.5498" y1="-112.25" x2="290.375" y2="-112.25" gradientTransform="matrix(1 0 0 -1 -266 -95)">
	<stop  offset="0" style="stop-color:#E7C474"/>
	<stop  offset="1" style="stop-color:#CEAA44"/>
</linearGradient>
<ellipse fill="url(#SVGID_12_)" cx="20.962" cy="17.25" rx="3.413" ry="6"/>
<linearGradient id="SVGID_13_" gradientUnits="userSpaceOnUse" x1="299.9805" y1="-127.8047" x2="306.6074" y2="-127.8047" gradientTransform="matrix(1 0 0 -1 -266 -95)">
	<stop  offset="0" style="stop-color:#E7C474"/>
	<stop  offset="1" style="stop-color:#CEAA44"/>
</linearGradient>
<ellipse fill="url(#SVGID_13_)" cx="37.294" cy="32.805" rx="3.313" ry="3.669"/>
<linearGradient id="SVGID_14_" gradientUnits="userSpaceOnUse" x1="296.8838" y1="-153.395" x2="306.3213" y2="-153.395" gradientTransform="matrix(1 0 0 -1 -266 -95)">
	<stop  offset="0" style="stop-color:#E7C474"/>
	<stop  offset="1" style="stop-color:#CEAA44"/>
</linearGradient>
<ellipse fill="url(#SVGID_14_)" cx="35.603" cy="58.395" rx="4.719" ry="7.907"/>
<linearGradient id="SVGID_15_" gradientUnits="userSpaceOnUse" x1="309.0186" y1="-144.0562" x2="318.457" y2="-144.0562" gradientTransform="matrix(1 0 0 -1 -266 -95)">
	<stop  offset="0" style="stop-color:#E7C474"/>
	<stop  offset="1" style="stop-color:#CEAA44"/>
</linearGradient>
<ellipse fill="url(#SVGID_15_)" cx="47.738" cy="49.056" rx="4.719" ry="7.907"/>
<linearGradient id="SVGID_16_" gradientUnits="userSpaceOnUse" x1="306.4893" y1="-159.6787" x2="313.1172" y2="-159.6787" gradientTransform="matrix(1 0 0 -1 -266 -95)">
	<stop  offset="0" style="stop-color:#E7C474"/>
	<stop  offset="1" style="stop-color:#CEAA44"/>
</linearGradient>
<ellipse fill="url(#SVGID_16_)" cx="43.803" cy="64.679" rx="3.314" ry="3.669"/>
<linearGradient id="SVGID_17_" gradientUnits="userSpaceOnUse" x1="305" y1="-123.625" x2="312.3125" y2="-123.625" gradientTransform="matrix(1 0 0 -1 -266 -95)">
	<stop  offset="0" style="stop-color:#E7C474"/>
	<stop  offset="1" style="stop-color:#CEAA44"/>
</linearGradient>
<ellipse fill="url(#SVGID_17_)" cx="42.656" cy="28.625" rx="3.656" ry="4.688"/>
<linearGradient id="SVGID_18_" gradientUnits="userSpaceOnUse" x1="301.5879" y1="-115.125" x2="305" y2="-115.125" gradientTransform="matrix(1 0 0 -1 -266 -95)">
	<stop  offset="0" style="stop-color:#E7C474"/>
	<stop  offset="1" style="stop-color:#CEAA44"/>
</linearGradient>
<ellipse fill="url(#SVGID_18_)" cx="37.294" cy="20.125" rx="1.706" ry="3.188"/>
<linearGradient id="SVGID_19_" gradientUnits="userSpaceOnUse" x1="274.3721" y1="-186.5552" x2="281.6846" y2="-186.5552" gradientTransform="matrix(1 0 0 -1 -266 -95)">
	<stop  offset="0" style="stop-color:#E7C474"/>
	<stop  offset="1" style="stop-color:#CEAA44"/>
</linearGradient>
<ellipse fill="url(#SVGID_19_)" cx="12.028" cy="91.555" rx="3.656" ry="4.688"/>
<linearGradient id="SVGID_20_" gradientUnits="userSpaceOnUse" x1="270.96" y1="-178.0552" x2="274.3721" y2="-178.0552" gradientTransform="matrix(1 0 0 -1 -266 -95)">
	<stop  offset="0" style="stop-color:#E7C474"/>
	<stop  offset="1" style="stop-color:#CEAA44"/>
</linearGradient>
<ellipse fill="url(#SVGID_20_)" cx="6.666" cy="83.055" rx="1.706" ry="3.188"/>
<linearGradient id="SVGID_21_" gradientUnits="userSpaceOnUse" x1="273.0078" y1="-174.4854" x2="279.6367" y2="-174.4854" gradientTransform="matrix(1 0 0 -1 -266 -95)">
	<stop  offset="0" style="stop-color:#E7C474"/>
	<stop  offset="1" style="stop-color:#CEAA44"/>
</linearGradient>
<ellipse fill="url(#SVGID_21_)" cx="10.322" cy="79.485" rx="3.314" ry="3.669"/>
<linearGradient id="SVGID_22_" gradientUnits="userSpaceOnUse" x1="278.0283" y1="-170.3052" x2="285.3408" y2="-170.3052" gradientTransform="matrix(1 0 0 -1 -266 -95)">
	<stop  offset="0" style="stop-color:#E7C474"/>
	<stop  offset="1" style="stop-color:#CEAA44"/>
</linearGradient>
<ellipse fill="url(#SVGID_22_)" cx="15.685" cy="75.305" rx="3.656" ry="4.688"/>
<linearGradient id="SVGID_23_" gradientUnits="userSpaceOnUse" x1="274.6162" y1="-161.8052" x2="278.0283" y2="-161.8052" gradientTransform="matrix(1 0 0 -1 -266 -95)">
	<stop  offset="0" style="stop-color:#E7C474"/>
	<stop  offset="1" style="stop-color:#CEAA44"/>
</linearGradient>
<ellipse fill="url(#SVGID_23_)" cx="10.322" cy="66.805" rx="1.706" ry="3.188"/>
<linearGradient id="SVGID_24_" gradientUnits="userSpaceOnUse" x1="295.4941" y1="-106.2646" x2="301.5879" y2="-106.2646" gradientTransform="matrix(1 0 0 -1 -266 -95)">
	<stop  offset="0" style="stop-color:#E7C474"/>
	<stop  offset="1" style="stop-color:#CEAA44"/>
</linearGradient>
<ellipse fill="url(#SVGID_24_)" cx="32.541" cy="11.265" rx="3.047" ry="4.478"/>
<linearGradient id="SVGID_25_" gradientUnits="userSpaceOnUse" x1="269.9004" y1="-143.75" x2="276.7246" y2="-143.75" gradientTransform="matrix(1 0 0 -1 -266 -95)">
	<stop  offset="0" style="stop-color:#E7C474"/>
	<stop  offset="1" style="stop-color:#CEAA44"/>
</linearGradient>
<ellipse fill="url(#SVGID_25_)" cx="7.312" cy="48.75" rx="3.413" ry="6"/>
<linearGradient id="SVGID_26_" gradientUnits="userSpaceOnUse" x1="272.8252" y1="-153.021" x2="282.2637" y2="-153.021" gradientTransform="matrix(1 0 0 -1 -266 -95)">
	<stop  offset="0" style="stop-color:#E7C474"/>
	<stop  offset="1" style="stop-color:#CEAA44"/>
</linearGradient>
<ellipse fill="url(#SVGID_26_)" cx="11.544" cy="58.021" rx="4.719" ry="7.907"/>
<linearGradient id="SVGID_27_" gradientUnits="userSpaceOnUse" x1="282.4297" y1="-159.3047" x2="289.0576" y2="-159.3047" gradientTransform="matrix(1 0 0 -1 -266 -95)">
	<stop  offset="0" style="stop-color:#E7C474"/>
	<stop  offset="1" style="stop-color:#CEAA44"/>
</linearGradient>
<ellipse fill="url(#SVGID_27_)" cx="19.744" cy="64.305" rx="3.314" ry="3.669"/>
<linearGradient id="SVGID_28_" gradientUnits="userSpaceOnUse" x1="287.4502" y1="-155.125" x2="294.7627" y2="-155.125" gradientTransform="matrix(1 0 0 -1 -266 -95)">
	<stop  offset="0" style="stop-color:#E7C474"/>
	<stop  offset="1" style="stop-color:#CEAA44"/>
</linearGradient>
<ellipse fill="url(#SVGID_28_)" cx="25.106" cy="60.125" rx="3.656" ry="4.688"/>
<linearGradient id="SVGID_29_" gradientUnits="userSpaceOnUse" x1="284.0371" y1="-146.625" x2="287.4502" y2="-146.625" gradientTransform="matrix(1 0 0 -1 -266 -95)">
	<stop  offset="0" style="stop-color:#E7C474"/>
	<stop  offset="1" style="stop-color:#CEAA44"/>
</linearGradient>
<ellipse fill="url(#SVGID_29_)" cx="19.744" cy="51.625" rx="1.707" ry="3.188"/>
<linearGradient id="SVGID_30_" gradientUnits="userSpaceOnUse" x1="277.9434" y1="-137.7646" x2="284.0371" y2="-137.7646" gradientTransform="matrix(1 0 0 -1 -266 -95)">
	<stop  offset="0" style="stop-color:#E7C474"/>
	<stop  offset="1" style="stop-color:#CEAA44"/>
</linearGradient>
<ellipse fill="url(#SVGID_30_)" cx="14.991" cy="42.765" rx="3.047" ry="4.478"/>
<linearGradient id="SVGID_31_" gradientUnits="userSpaceOnUse" x1="309.0186" y1="-183.4302" x2="318.457" y2="-183.4302" gradientTransform="matrix(1 0 0 -1 -266 -95)">
	<stop  offset="0" style="stop-color:#E7C474"/>
	<stop  offset="1" style="stop-color:#CEAA44"/>
</linearGradient>
<ellipse fill="url(#SVGID_31_)" cx="47.738" cy="88.43" rx="4.719" ry="7.907"/>
<linearGradient id="SVGID_32_" gradientUnits="userSpaceOnUse" x1="291.0186" y1="-165.7148" x2="297.8438" y2="-165.7148" gradientTransform="matrix(1 0 0 -1 -266 -95)">
	<stop  offset="0" style="stop-color:#E7C474"/>
	<stop  offset="1" style="stop-color:#CEAA44"/>
</linearGradient>
<ellipse fill="url(#SVGID_32_)" cx="28.431" cy="70.715" rx="3.413" ry="6"/>
<linearGradient id="SVGID_33_" gradientUnits="userSpaceOnUse" x1="297.8438" y1="-174.9849" x2="307.2812" y2="-174.9849" gradientTransform="matrix(1 0 0 -1 -266 -95)">
	<stop  offset="0" style="stop-color:#E7C474"/>
	<stop  offset="1" style="stop-color:#CEAA44"/>
</linearGradient>
<ellipse fill="url(#SVGID_33_)" cx="36.562" cy="79.985" rx="4.719" ry="7.907"/>
<linearGradient id="SVGID_34_" gradientUnits="userSpaceOnUse" x1="309.2656" y1="-169.7139" x2="315.3594" y2="-169.7139" gradientTransform="matrix(1 0 0 -1 -266 -95)">
	<stop  offset="0" style="stop-color:#E7C474"/>
	<stop  offset="1" style="stop-color:#CEAA44"/>
</linearGradient>
<ellipse fill="url(#SVGID_34_)" cx="46.312" cy="74.714" rx="3.047" ry="4.478"/>
<linearGradient id="SVGID_35_" gradientUnits="userSpaceOnUse" x1="281.0254" y1="-180.9648" x2="287.8496" y2="-180.9648" gradientTransform="matrix(1 0 0 -1 -266 -95)">
	<stop  offset="0" style="stop-color:#E7C474"/>
	<stop  offset="1" style="stop-color:#CEAA44"/>
</linearGradient>
<ellipse fill="url(#SVGID_35_)" cx="18.438" cy="85.965" rx="3.413" ry="6"/>
<linearGradient id="SVGID_36_" gradientUnits="userSpaceOnUse" x1="283.9492" y1="-190.2349" x2="293.3877" y2="-190.2349" gradientTransform="matrix(1 0 0 -1 -266 -95)">
	<stop  offset="0" style="stop-color:#E7C474"/>
	<stop  offset="1" style="stop-color:#CEAA44"/>
</linearGradient>
<ellipse fill="url(#SVGID_36_)" cx="22.669" cy="95.235" rx="4.719" ry="7.907"/>
<linearGradient id="SVGID_37_" gradientUnits="userSpaceOnUse" x1="298.5752" y1="-192.3398" x2="305.8877" y2="-192.3398" gradientTransform="matrix(1 0 0 -1 -266 -95)">
	<stop  offset="0" style="stop-color:#E7C474"/>
	<stop  offset="1" style="stop-color:#CEAA44"/>
</linearGradient>
<ellipse fill="url(#SVGID_37_)" cx="36.231" cy="97.34" rx="3.656" ry="4.688"/>
<linearGradient id="SVGID_38_" gradientUnits="userSpaceOnUse" x1="295.1621" y1="-183.8398" x2="298.5752" y2="-183.8398" gradientTransform="matrix(1 0 0 -1 -266 -95)">
	<stop  offset="0" style="stop-color:#E7C474"/>
	<stop  offset="1" style="stop-color:#CEAA44"/>
</linearGradient>
<ellipse fill="url(#SVGID_38_)" cx="30.869" cy="88.84" rx="1.706" ry="3.188"/>
<linearGradient id="SVGID_39_" gradientUnits="userSpaceOnUse" x1="289.0684" y1="-174.98" x2="295.1621" y2="-174.98" gradientTransform="matrix(1 0 0 -1 -266 -95)">
	<stop  offset="0" style="stop-color:#E7C474"/>
	<stop  offset="1" style="stop-color:#CEAA44"/>
</linearGradient>
<ellipse fill="url(#SVGID_39_)" cx="26.116" cy="79.98" rx="3.047" ry="4.477"/>
<linearGradient id="SVGID_40_" gradientUnits="userSpaceOnUse" x1="291.8008" y1="-247.6689" x2="301.2393" y2="-247.6689" gradientTransform="matrix(1 0 0 -1 -266 -95)">
	<stop  offset="0" style="stop-color:#E7C474"/>
	<stop  offset="1" style="stop-color:#CEAA44"/>
</linearGradient>
<ellipse fill="url(#SVGID_40_)" cx="30.52" cy="152.669" rx="4.72" ry="7.905"/>
<linearGradient id="SVGID_41_" gradientUnits="userSpaceOnUse" x1="281.3193" y1="-254.6484" x2="288.1445" y2="-254.6484" gradientTransform="matrix(1 0 0 -1 -266 -95)">
	<stop  offset="0" style="stop-color:#E7C474"/>
	<stop  offset="1" style="stop-color:#CEAA44"/>
</linearGradient>
<ellipse fill="url(#SVGID_41_)" cx="18.731" cy="159.648" rx="3.413" ry="6"/>
<linearGradient id="SVGID_42_" gradientUnits="userSpaceOnUse" x1="288.1445" y1="-263.9189" x2="297.583" y2="-263.9189" gradientTransform="matrix(1 0 0 -1 -266 -95)">
	<stop  offset="0" style="stop-color:#E7C474"/>
	<stop  offset="1" style="stop-color:#CEAA44"/>
</linearGradient>
<ellipse fill="url(#SVGID_42_)" cx="26.863" cy="168.919" rx="4.72" ry="7.905"/>
<linearGradient id="SVGID_43_" gradientUnits="userSpaceOnUse" x1="297.748" y1="-270.2031" x2="304.377" y2="-270.2031" gradientTransform="matrix(1 0 0 -1 -266 -95)">
	<stop  offset="0" style="stop-color:#E7C474"/>
	<stop  offset="1" style="stop-color:#CEAA44"/>
</linearGradient>
<ellipse fill="url(#SVGID_43_)" cx="35.062" cy="175.203" rx="3.314" ry="3.671"/>
<linearGradient id="SVGID_44_" gradientUnits="userSpaceOnUse" x1="302.7705" y1="-266.0234" x2="310.083" y2="-266.0234" gradientTransform="matrix(1 0 0 -1 -266 -95)">
	<stop  offset="0" style="stop-color:#E7C474"/>
	<stop  offset="1" style="stop-color:#CEAA44"/>
</linearGradient>
<ellipse fill="url(#SVGID_44_)" cx="40.427" cy="171.023" rx="3.656" ry="4.688"/>
<linearGradient id="SVGID_45_" gradientUnits="userSpaceOnUse" x1="299.3574" y1="-257.5234" x2="302.7705" y2="-257.5234" gradientTransform="matrix(1 0 0 -1 -266 -95)">
	<stop  offset="0" style="stop-color:#E7C474"/>
	<stop  offset="1" style="stop-color:#CEAA44"/>
</linearGradient>
<ellipse fill="url(#SVGID_45_)" cx="35.063" cy="162.523" rx="1.707" ry="3.188"/>
<linearGradient id="SVGID_46_" gradientUnits="userSpaceOnUse" x1="273.2764" y1="-251.5078" x2="279.3701" y2="-251.5078" gradientTransform="matrix(1 0 0 -1 -266 -95)">
	<stop  offset="0" style="stop-color:#E7C474"/>
	<stop  offset="1" style="stop-color:#CEAA44"/>
</linearGradient>
<ellipse fill="url(#SVGID_46_)" cx="10.323" cy="156.508" rx="3.047" ry="4.477"/>
<linearGradient id="SVGID_47_" gradientUnits="userSpaceOnUse" x1="284.9756" y1="-238.3984" x2="291.8008" y2="-238.3984" gradientTransform="matrix(1 0 0 -1 -266 -95)">
	<stop  offset="0" style="stop-color:#E7C474"/>
	<stop  offset="1" style="stop-color:#CEAA44"/>
</linearGradient>
<ellipse fill="url(#SVGID_47_)" cx="22.388" cy="143.398" rx="3.413" ry="6"/>
<linearGradient id="SVGID_48_" gradientUnits="userSpaceOnUse" x1="301.4043" y1="-253.9531" x2="308.0332" y2="-253.9531" gradientTransform="matrix(1 0 0 -1 -266 -95)">
	<stop  offset="0" style="stop-color:#E7C474"/>
	<stop  offset="1" style="stop-color:#CEAA44"/>
</linearGradient>
<ellipse fill="url(#SVGID_48_)" cx="38.719" cy="158.953" rx="3.314" ry="3.671"/>
<linearGradient id="SVGID_49_" gradientUnits="userSpaceOnUse" x1="298.3105" y1="-279.543" x2="307.748" y2="-279.543" gradientTransform="matrix(1 0 0 -1 -266 -95)">
	<stop  offset="0" style="stop-color:#E7C474"/>
	<stop  offset="1" style="stop-color:#CEAA44"/>
</linearGradient>
<ellipse fill="url(#SVGID_49_)" cx="37.029" cy="184.543" rx="4.719" ry="7.907"/>
<linearGradient id="SVGID_50_" gradientUnits="userSpaceOnUse" x1="307.9141" y1="-285.8281" x2="314.542" y2="-285.8281" gradientTransform="matrix(1 0 0 -1 -266 -95)">
	<stop  offset="0" style="stop-color:#E7C474"/>
	<stop  offset="1" style="stop-color:#CEAA44"/>
</linearGradient>
<ellipse fill="url(#SVGID_50_)" cx="45.229" cy="190.828" rx="3.313" ry="3.668"/>
<linearGradient id="SVGID_51_" gradientUnits="userSpaceOnUse" x1="306.4268" y1="-249.7734" x2="313.7393" y2="-249.7734" gradientTransform="matrix(1 0 0 -1 -266 -95)">
	<stop  offset="0" style="stop-color:#E7C474"/>
	<stop  offset="1" style="stop-color:#CEAA44"/>
</linearGradient>
<ellipse fill="url(#SVGID_51_)" cx="44.083" cy="154.773" rx="3.656" ry="4.688"/>
<linearGradient id="SVGID_52_" gradientUnits="userSpaceOnUse" x1="303.0137" y1="-241.2734" x2="306.4268" y2="-241.2734" gradientTransform="matrix(1 0 0 -1 -266 -95)">
	<stop  offset="0" style="stop-color:#E7C474"/>
	<stop  offset="1" style="stop-color:#CEAA44"/>
</linearGradient>
<ellipse fill="url(#SVGID_52_)" cx="38.72" cy="146.273" rx="1.707" ry="3.188"/>
<linearGradient id="SVGID_53_" gradientUnits="userSpaceOnUse" x1="296.9199" y1="-232.4141" x2="303.0137" y2="-232.4141" gradientTransform="matrix(1 0 0 -1 -266 -95)">
	<stop  offset="0" style="stop-color:#E7C474"/>
	<stop  offset="1" style="stop-color:#CEAA44"/>
</linearGradient>
<ellipse fill="url(#SVGID_53_)" cx="33.967" cy="137.414" rx="3.047" ry="4.477"/>
<linearGradient id="SVGID_54_" gradientUnits="userSpaceOnUse" x1="271.3252" y1="-269.8984" x2="278.1504" y2="-269.8984" gradientTransform="matrix(1 0 0 -1 -266 -95)">
	<stop  offset="0" style="stop-color:#E7C474"/>
	<stop  offset="1" style="stop-color:#CEAA44"/>
</linearGradient>
<ellipse fill="url(#SVGID_54_)" cx="8.738" cy="174.898" rx="3.413" ry="6"/>
<linearGradient id="SVGID_55_" gradientUnits="userSpaceOnUse" x1="274.252" y1="-279.1689" x2="283.6895" y2="-279.1689" gradientTransform="matrix(1 0 0 -1 -266 -95)">
	<stop  offset="0" style="stop-color:#E7C474"/>
	<stop  offset="1" style="stop-color:#CEAA44"/>
</linearGradient>
<ellipse fill="url(#SVGID_55_)" cx="12.971" cy="184.169" rx="4.719" ry="7.905"/>
<linearGradient id="SVGID_56_" gradientUnits="userSpaceOnUse" x1="283.8555" y1="-285.4531" x2="290.4824" y2="-285.4531" gradientTransform="matrix(1 0 0 -1 -266 -95)">
	<stop  offset="0" style="stop-color:#E7C474"/>
	<stop  offset="1" style="stop-color:#CEAA44"/>
</linearGradient>
<ellipse fill="url(#SVGID_56_)" cx="21.169" cy="190.453" rx="3.314" ry="3.671"/>
<linearGradient id="SVGID_57_" gradientUnits="userSpaceOnUse" x1="288.877" y1="-281.2734" x2="296.1895" y2="-281.2734" gradientTransform="matrix(1 0 0 -1 -266 -95)">
	<stop  offset="0" style="stop-color:#E7C474"/>
	<stop  offset="1" style="stop-color:#CEAA44"/>
</linearGradient>
<ellipse fill="url(#SVGID_57_)" cx="26.533" cy="186.273" rx="3.656" ry="4.688"/>
<linearGradient id="SVGID_58_" gradientUnits="userSpaceOnUse" x1="285.4629" y1="-272.7734" x2="288.875" y2="-272.7734" gradientTransform="matrix(1 0 0 -1 -266 -95)">
	<stop  offset="0" style="stop-color:#E7C474"/>
	<stop  offset="1" style="stop-color:#CEAA44"/>
</linearGradient>
<ellipse fill="url(#SVGID_58_)" cx="21.169" cy="177.773" rx="1.707" ry="3.188"/>
<linearGradient id="SVGID_59_" gradientUnits="userSpaceOnUse" x1="288.5205" y1="-229.4297" x2="291.9336" y2="-229.4297" gradientTransform="matrix(1 0 0 -1 -266 -95)">
	<stop  offset="0" style="stop-color:#E7C474"/>
	<stop  offset="1" style="stop-color:#CEAA44"/>
</linearGradient>
<ellipse fill="url(#SVGID_59_)" cx="24.227" cy="134.43" rx="1.706" ry="3.188"/>
<linearGradient id="SVGID_60_" gradientUnits="userSpaceOnUse" x1="315.6885" y1="-221.7344" x2="319.1016" y2="-221.7344" gradientTransform="matrix(1 0 0 -1 -266 -95)">
	<stop  offset="0" style="stop-color:#E7C474"/>
	<stop  offset="1" style="stop-color:#CEAA44"/>
</linearGradient>
<ellipse fill="url(#SVGID_60_)" cx="51.396" cy="126.734" rx="1.706" ry="3.188"/>
<linearGradient id="SVGID_61_" gradientUnits="userSpaceOnUse" x1="315.9766" y1="-197.1094" x2="319.3887" y2="-197.1094" gradientTransform="matrix(1 0 0 -1 -266 -95)">
	<stop  offset="0" style="stop-color:#E7C474"/>
	<stop  offset="1" style="stop-color:#CEAA44"/>
</linearGradient>
<ellipse fill="url(#SVGID_61_)" cx="51.683" cy="102.11" rx="1.706" ry="3.187"/>
<linearGradient id="SVGID_62_" gradientUnits="userSpaceOnUse" x1="315.6885" y1="-156.8589" x2="319.1016" y2="-156.8589" gradientTransform="matrix(1 0 0 -1 -266 -95)">
	<stop  offset="0" style="stop-color:#E7C474"/>
	<stop  offset="1" style="stop-color:#CEAA44"/>
</linearGradient>
<ellipse fill="url(#SVGID_62_)" cx="51.396" cy="61.859" rx="1.706" ry="3.188"/>
<linearGradient id="SVGID_63_" gradientUnits="userSpaceOnUse" x1="278.1875" y1="-120.5" x2="281.5996" y2="-120.5" gradientTransform="matrix(1 0 0 -1 -266 -95)">
	<stop  offset="0" style="stop-color:#E7C474"/>
	<stop  offset="1" style="stop-color:#CEAA44"/>
</linearGradient>
<ellipse fill="url(#SVGID_63_)" cx="13.894" cy="25.5" rx="1.707" ry="3.188"/>
<linearGradient id="SVGID_64_" gradientUnits="userSpaceOnUse" x1="313.9824" y1="-122.625" x2="317.3955" y2="-122.625" gradientTransform="matrix(1 0 0 -1 -266 -95)">
	<stop  offset="0" style="stop-color:#E7C474"/>
	<stop  offset="1" style="stop-color:#CEAA44"/>
</linearGradient>
<ellipse fill="url(#SVGID_64_)" cx="49.688" cy="27.625" rx="1.707" ry="3.188"/>
<linearGradient id="SVGID_65_" gradientUnits="userSpaceOnUse" x1="316.751" y1="-279.543" x2="320.1641" y2="-279.543" gradientTransform="matrix(1 0 0 -1 -266 -95)">
	<stop  offset="0" style="stop-color:#E7C474"/>
	<stop  offset="1" style="stop-color:#CEAA44"/>
</linearGradient>
<ellipse fill="url(#SVGID_65_)" cx="52.458" cy="184.543" rx="1.706" ry="3.188"/>
<linearGradient id="SVGID_66_" gradientUnits="userSpaceOnUse" x1="279.3691" y1="-263.9141" x2="285.4629" y2="-263.9141" gradientTransform="matrix(1 0 0 -1 -266 -95)">
	<stop  offset="0" style="stop-color:#E7C474"/>
	<stop  offset="1" style="stop-color:#CEAA44"/>
</linearGradient>
<ellipse fill="url(#SVGID_66_)" cx="16.416" cy="168.914" rx="3.047" ry="4.477"/>
<linearGradient id="SVGID_67_" gradientUnits="userSpaceOnUse" x1="310.6572" y1="-238.3979" x2="316.751" y2="-238.3979" gradientTransform="matrix(1 0 0 -1 -266 -95)">
	<stop  offset="0" style="stop-color:#E7C474"/>
	<stop  offset="1" style="stop-color:#CEAA44"/>
</linearGradient>
<ellipse fill="url(#SVGID_67_)" cx="47.704" cy="143.398" rx="3.047" ry="4.476"/>
<linearGradient id="SVGID_68_" gradientUnits="userSpaceOnUse" x1="308.1816" y1="-273.8979" x2="314.2754" y2="-273.8979" gradientTransform="matrix(1 0 0 -1 -266 -95)">
	<stop  offset="0" style="stop-color:#E7C474"/>
	<stop  offset="1" style="stop-color:#CEAA44"/>
</linearGradient>
<ellipse fill="url(#SVGID_68_)" cx="45.229" cy="178.898" rx="3.047" ry="4.476"/>
<linearGradient id="SVGID_69_" gradientUnits="userSpaceOnUse" x1="313.7041" y1="-259.6479" x2="319.7979" y2="-259.6479" gradientTransform="matrix(1 0 0 -1 -266 -95)">
	<stop  offset="0" style="stop-color:#E7C474"/>
	<stop  offset="1" style="stop-color:#CEAA44"/>
</linearGradient>
<ellipse fill="url(#SVGID_69_)" cx="50.751" cy="164.648" rx="3.047" ry="4.476"/>
<linearGradient id="SVGID_70_" gradientUnits="userSpaceOnUse" x1="273.9629" y1="-194.2344" x2="280.7871" y2="-194.2344" gradientTransform="matrix(1 0 0 -1 -266 -95)">
	<stop  offset="0" style="stop-color:#E7C474"/>
	<stop  offset="1" style="stop-color:#CEAA44"/>
</linearGradient>
<ellipse fill="url(#SVGID_70_)" cx="11.375" cy="99.235" rx="3.412" ry="6"/>
<linearGradient id="SVGID_71_" gradientUnits="userSpaceOnUse" x1="280.7891" y1="-203.5059" x2="290.2266" y2="-203.5059" gradientTransform="matrix(1 0 0 -1 -266 -95)">
	<stop  offset="0" style="stop-color:#E7C474"/>
	<stop  offset="1" style="stop-color:#CEAA44"/>
</linearGradient>
<ellipse fill="url(#SVGID_71_)" cx="19.508" cy="108.506" rx="4.719" ry="7.907"/>
<linearGradient id="SVGID_72_" gradientUnits="userSpaceOnUse" x1="290.3926" y1="-209.7896" x2="297.0215" y2="-209.7896" gradientTransform="matrix(1 0 0 -1 -266 -95)">
	<stop  offset="0" style="stop-color:#E7C474"/>
	<stop  offset="1" style="stop-color:#CEAA44"/>
</linearGradient>
<ellipse fill="url(#SVGID_72_)" cx="27.707" cy="114.79" rx="3.315" ry="3.67"/>
<linearGradient id="SVGID_73_" gradientUnits="userSpaceOnUse" x1="295.4141" y1="-205.6094" x2="302.7266" y2="-205.6094" gradientTransform="matrix(1 0 0 -1 -266 -95)">
	<stop  offset="0" style="stop-color:#E7C474"/>
	<stop  offset="1" style="stop-color:#CEAA44"/>
</linearGradient>
<ellipse fill="url(#SVGID_73_)" cx="33.07" cy="110.609" rx="3.656" ry="4.688"/>
<linearGradient id="SVGID_74_" gradientUnits="userSpaceOnUse" x1="292.002" y1="-197.1094" x2="295.4141" y2="-197.1094" gradientTransform="matrix(1 0 0 -1 -266 -95)">
	<stop  offset="0" style="stop-color:#E7C474"/>
	<stop  offset="1" style="stop-color:#CEAA44"/>
</linearGradient>
<ellipse fill="url(#SVGID_74_)" cx="27.708" cy="102.11" rx="1.706" ry="3.187"/>
<linearGradient id="SVGID_75_" gradientUnits="userSpaceOnUse" x1="290.9541" y1="-219.1299" x2="300.3916" y2="-219.1299" gradientTransform="matrix(1 0 0 -1 -266 -95)">
	<stop  offset="0" style="stop-color:#E7C474"/>
	<stop  offset="1" style="stop-color:#CEAA44"/>
</linearGradient>
<ellipse fill="url(#SVGID_75_)" cx="29.673" cy="124.13" rx="4.718" ry="7.905"/>
<linearGradient id="SVGID_76_" gradientUnits="userSpaceOnUse" x1="300.5576" y1="-225.415" x2="307.1865" y2="-225.415" gradientTransform="matrix(1 0 0 -1 -266 -95)">
	<stop  offset="0" style="stop-color:#E7C474"/>
	<stop  offset="1" style="stop-color:#CEAA44"/>
</linearGradient>
<ellipse fill="url(#SVGID_76_)" cx="37.872" cy="130.415" rx="3.314" ry="3.667"/>
<linearGradient id="SVGID_77_" gradientUnits="userSpaceOnUse" x1="270.8379" y1="-217.7344" x2="277.6631" y2="-217.7344" gradientTransform="matrix(1 0 0 -1 -266 -95)">
	<stop  offset="0" style="stop-color:#E7C474"/>
	<stop  offset="1" style="stop-color:#CEAA44"/>
</linearGradient>
<ellipse fill="url(#SVGID_77_)" cx="8.25" cy="122.734" rx="3.413" ry="6"/>
<linearGradient id="SVGID_78_" gradientUnits="userSpaceOnUse" x1="273.2422" y1="-238.3979" x2="282.6797" y2="-238.3979" gradientTransform="matrix(1 0 0 -1 -266 -95)">
	<stop  offset="0" style="stop-color:#E7C474"/>
	<stop  offset="1" style="stop-color:#CEAA44"/>
</linearGradient>
<ellipse fill="url(#SVGID_78_)" cx="11.961" cy="143.398" rx="4.719" ry="7.907"/>
<linearGradient id="SVGID_79_" gradientUnits="userSpaceOnUse" x1="276.499" y1="-225.0396" x2="283.127" y2="-225.0396" gradientTransform="matrix(1 0 0 -1 -266 -95)">
	<stop  offset="0" style="stop-color:#E7C474"/>
	<stop  offset="1" style="stop-color:#CEAA44"/>
</linearGradient>
<ellipse fill="url(#SVGID_79_)" cx="13.813" cy="130.04" rx="3.314" ry="3.67"/>
<linearGradient id="SVGID_80_" gradientUnits="userSpaceOnUse" x1="281.5195" y1="-220.8594" x2="288.832" y2="-220.8594" gradientTransform="matrix(1 0 0 -1 -266 -95)">
	<stop  offset="0" style="stop-color:#E7C474"/>
	<stop  offset="1" style="stop-color:#CEAA44"/>
</linearGradient>
<ellipse fill="url(#SVGID_80_)" cx="19.176" cy="125.859" rx="3.656" ry="4.688"/>
<linearGradient id="SVGID_81_" gradientUnits="userSpaceOnUse" x1="278.1064" y1="-212.3594" x2="281.5195" y2="-212.3594" gradientTransform="matrix(1 0 0 -1 -266 -95)">
	<stop  offset="0" style="stop-color:#E7C474"/>
	<stop  offset="1" style="stop-color:#CEAA44"/>
</linearGradient>
<ellipse fill="url(#SVGID_81_)" cx="13.813" cy="117.359" rx="1.706" ry="3.188"/>
<linearGradient id="SVGID_82_" gradientUnits="userSpaceOnUse" x1="309.3955" y1="-219.1299" x2="312.8076" y2="-219.1299" gradientTransform="matrix(1 0 0 -1 -266 -95)">
	<stop  offset="0" style="stop-color:#E7C474"/>
	<stop  offset="1" style="stop-color:#CEAA44"/>
</linearGradient>
<ellipse fill="url(#SVGID_82_)" cx="45.102" cy="124.13" rx="1.706" ry="3.188"/>
<linearGradient id="SVGID_83_" gradientUnits="userSpaceOnUse" x1="272.0127" y1="-203.501" x2="278.1064" y2="-203.501" gradientTransform="matrix(1 0 0 -1 -266 -95)">
	<stop  offset="0" style="stop-color:#E7C474"/>
	<stop  offset="1" style="stop-color:#CEAA44"/>
</linearGradient>
<ellipse fill="url(#SVGID_83_)" cx="9.06" cy="108.501" rx="3.047" ry="4.476"/>
<linearGradient id="SVGID_84_" gradientUnits="userSpaceOnUse" x1="300.8262" y1="-213.4849" x2="306.9199" y2="-213.4849" gradientTransform="matrix(1 0 0 -1 -266 -95)">
	<stop  offset="0" style="stop-color:#E7C474"/>
	<stop  offset="1" style="stop-color:#CEAA44"/>
</linearGradient>
<ellipse fill="url(#SVGID_84_)" cx="37.873" cy="118.485" rx="3.047" ry="4.476"/>
<linearGradient id="SVGID_85_" gradientUnits="userSpaceOnUse" x1="310.3701" y1="-208.6279" x2="317.6826" y2="-208.6279" gradientTransform="matrix(1 0 0 -1 -266 -95)">
	<stop  offset="0" style="stop-color:#E7C474"/>
	<stop  offset="1" style="stop-color:#CEAA44"/>
</linearGradient>
<ellipse fill="url(#SVGID_85_)" cx="48.026" cy="113.628" rx="3.656" ry="4.688"/>
<linearGradient id="SVGID_86_" gradientUnits="userSpaceOnUse" x1="312.6211" y1="-229.7729" x2="318.7148" y2="-229.7729" gradientTransform="matrix(1 0 0 -1 -266 -95)">
	<stop  offset="0" style="stop-color:#E7C474"/>
	<stop  offset="1" style="stop-color:#CEAA44"/>
</linearGradient>
<ellipse fill="url(#SVGID_86_)" cx="49.668" cy="134.773" rx="3.047" ry="4.476"/>
<linearGradient id="SVGID_87_" gradientUnits="userSpaceOnUse" x1="306.3486" y1="-199.2349" x2="312.4424" y2="-199.2349" gradientTransform="matrix(1 0 0 -1 -266 -95)">
	<stop  offset="0" style="stop-color:#E7C474"/>
	<stop  offset="1" style="stop-color:#CEAA44"/>
</linearGradient>
<ellipse fill="url(#SVGID_87_)" cx="43.396" cy="104.235" rx="3.047" ry="4.476"/>
<path fill="#FFF680" d="M43.759,109.178c0.094,1.006-0.263,1.96-0.792,2.136l-24.482,8.052c-0.53,0.176-1.035-0.496-1.128-1.502
	L13.102,71.52c-0.093-1.004,0.263-1.96,0.793-2.135l24.481-8.056c0.529-0.175,1.035,0.499,1.128,1.502L43.759,109.178z"/>
</svg>
