<?xml version="1.0" encoding="utf-8"?>
<!-- Generator: Adobe Illustrator 16.0.4, SVG Export Plug-In . SVG Version: 6.00 Build 0)  -->
<!DOCTYPE svg PUBLIC "-//W3C//DTD SVG 1.1//EN" "http://www.w3.org/Graphics/SVG/1.1/DTD/svg11.dtd">
<svg version="1.1" id="Layer_1" xmlns="http://www.w3.org/2000/svg" xmlns:xlink="http://www.w3.org/1999/xlink" x="0px" y="0px"
	 width="60px" height="200px" viewBox="0 0 60 200" enable-background="new 0 0 60 200" xml:space="preserve">
<path fill="#7C642F" d="M18.25,200c4-29.75,4.75-65.5,4.5-94.5s-1.25-74.25-5.5-88.75s5.512-8.375,5.512-8.375
	S24.75,10.5,26.75,16.75s4,37.5,4,37.5s-0.25-30.5,1.5-37.5s5-10.319,7.5-9.66s3.602,2.611,2.676,7.76S37.75,91,38,102
	s1.25,78.5,5.25,98H18.25z"/>
<path fill="#1B7C00" d="M19.218,18.926C10.81,18.926,0,16.666,0,9.887C0,6.779,5.703,0,10.807,0c5.105,0,9.912,0,17.419,0
	c7.507,0,15.416,0,20.52,0c5.105,0,9.808,3.107,11.009,5.367c1.201,2.26-2.015,7.918-9.608,10.169S27.626,18.926,19.218,18.926z"/>
</svg>
