<?xml version="1.0" encoding="utf-8"?>
<!-- Generator: Adobe Illustrator 16.0.4, SVG Export Plug-In . SVG Version: 6.00 Build 0)  -->
<!DOCTYPE svg PUBLIC "-//W3C//DTD SVG 1.1//EN" "http://www.w3.org/Graphics/SVG/1.1/DTD/svg11.dtd">
<svg version="1.1" id="Layer_1" xmlns="http://www.w3.org/2000/svg" xmlns:xlink="http://www.w3.org/1999/xlink" x="0px" y="0px"
	 width="60px" height="200px" viewBox="0 0 60 200" enable-background="new 0 0 60 200" xml:space="preserve">
<g>
	<path fill="#C6743C" d="M17.072,200.166c0.87,0.224,0.941-0.235,1.84-0.235c0.897,0,0.897-0.404,1.795-0.404
		c0.899,0,0.899,0.799,1.797,0.799s0.898-0.139,1.796-0.139c0.899,0,0.899-0.599,1.798-0.599c0.898,0,0.898,0.684,1.797,0.684
		c0.896,0,0.896,0.048,1.792,0.048c0.899,0,0.899,0.042,1.798,0.042c0.897,0,0.897,0.103,1.796,0.103s0.898-0.516,1.798-0.516
		c0.9,0,0.9-0.223,1.801-0.223c0.898,0,0.898,0.034,1.797,0.034c0.901,0,0.901-0.035,1.802-0.035c0.902,0,0.902,0.431,1.805,0.431
		s1.093,0.512,1.937,0.192c-0.154-0.625,0.016-1.697-0.139-2.286c-0.164-0.625-1.007-1.048-1.17-1.635
		c-0.172-0.621,0.231-1.386,0.062-1.968c-0.18-0.619-1.061-1.009-1.236-1.589c-0.188-0.615,0.197-1.386,0.017-1.963
		c-0.192-0.613-0.979-1.018-1.161-1.595c-0.181-0.572,0.005-1.244-0.166-1.792c-0.177-0.568-0.717-1.017-0.881-1.571
		c-0.168-0.564,0.482-1.355,0.329-1.919c-0.152-0.561-0.872-0.973-1.01-1.547c-0.133-0.559,0.194-1.224,0.077-1.808
		c-0.111-0.559-0.866-1.014-0.962-1.606c-0.091-0.559,0.18-1.193,0.105-1.792c-0.07-0.56-0.302-1.124-0.357-1.728
		c-0.052-0.562-0.383-1.13-0.421-1.735c-0.036-0.564,0.075-1.164,0.051-1.771c-0.022-0.565,0.007-1.157-0.005-1.764
		c-0.01-0.566,0.021-1.155,0.021-1.761c-0.001-0.566,0.601-1.146,0.609-1.751c0.008-0.568-0.608-1.165-0.593-1.768
		c0.016-0.568,0.04-1.155,0.062-1.756c0.021-0.569,0.711-1.125,0.74-1.726c0.026-0.571-0.173-1.166-0.14-1.767
		c0.031-0.57-0.046-1.16-0.009-1.758c0.036-0.573-0.358-1.189-0.317-1.789c0.04-0.574,0.689-1.117,0.734-1.717
		c0.045-0.606-0.449-1.25-0.397-1.84c0.054-0.605,0.066-1.211,0.126-1.8c0.062-0.604,0.285-1.187,0.353-1.774
		c0.07-0.604-0.028-1.224,0.048-1.81c0.078-0.603,0.394-1.168,0.479-1.754c0.087-0.601,0.452-1.15,0.546-1.734
		c0.096-0.6-0.114-1.242-0.013-1.826c0.105-0.598,0.323-1.168,0.434-1.751c0.114-0.595,0.116-1.207,0.236-1.788
		c0.122-0.594,0.512-1.123,0.64-1.703c0.131-0.59,0.231-1.18,0.368-1.758c0.139-0.588,0.195-1.189,0.339-1.767
		c0.146-0.585,0.154-1.2,0.305-1.776c0.152-0.583,0.039-1.237,0.195-1.813c0.158-0.58,0.259-1.177,0.421-1.751
		c0.162-0.578,0.689-1.053,0.854-1.627c0.166-0.575,0.409-1.127,0.578-1.7c0.168-0.572,0.315-1.15,0.485-1.723
		c0.171-0.573,0.511-1.097,0.683-1.672c0.173-0.58,0.04-1.251,0.213-1.833c0.172-0.579,0.957-0.979,1.129-1.562
		c0.17-0.579,0.089-1.235,0.258-1.819c0.167-0.579-0.219-1.317-0.054-1.903c0.163-0.58,1.134-0.939,1.294-1.527
		c0.158-0.581,0.348-1.161,0.503-1.75c0.152-0.582-0.063-1.267,0.084-1.858c0.146-0.584,0.006-1.239,0.147-1.834
		c0.139-0.585,0.335-1.159,0.468-1.756c0.131-0.587,0.802-1.064,0.927-1.663c0.122-0.589-0.141-1.263-0.024-1.864
		c0.114-0.59-0.105-1.245,0.001-1.849c0.105-0.592,0.021-1.215,0.118-1.82c0.096-0.593,0.676-1.114,0.765-1.72
		c0.086-0.594-0.32-1.258-0.241-1.866c0.077-0.595,0.893-1.104,0.962-1.713c0.067-0.596-0.181-1.232-0.121-1.843
		c0.06-0.597-0.146-1.221-0.096-1.833c0.05-0.597,0.612-1.162,0.654-1.774c0.04-0.598-0.025-1.212,0.008-1.824
		c0.032-0.599,0.3-1.197,0.324-1.81c0.023-0.599-0.542-1.225-0.526-1.838c0.016-0.6,0.126-1.203,0.134-1.817
		c0.008-0.6,0.319-1.205,0.319-1.819c0-0.6-0.121-1.207-0.129-1.821c-0.008-0.6,0.177-1.212,0.161-1.826
		c-0.015-0.6,0.147-1.215,0.125-1.829c-0.021-0.601-0.116-1.209-0.146-1.823c-0.028-0.601-0.09-1.209-0.126-1.822
		c-0.035-0.602-0.171-1.205-0.213-1.819c-0.042-0.601-0.18-1.203-0.228-1.816c-0.048-0.604,0.22-1.231,0.168-1.823
		c-0.052-0.604-0.892-1.131-0.947-1.723c-0.057-0.604-0.11-1.199-0.171-1.79c-0.062-0.604-0.125-1.197-0.189-1.788
		c-0.066-0.603,0.321-1.25,0.251-1.839c-0.07-0.603-0.616-1.14-0.69-1.729c-0.075-0.602,0.523-1.283,0.444-1.871
		c-0.081-0.602-0.28-1.181-0.364-1.768c-0.085-0.601,0.021-1.225-0.066-1.811c-0.09-0.601-0.709-1.114-0.801-1.699
		c-0.095-0.6-0.169-1.195-0.266-1.779c-0.1-0.6-0.503-1.137-0.604-1.721c-0.104-0.598,0.671-1.343,0.566-1.925
		c-0.107-0.597-0.854-1.07-0.962-1.651c-0.112-0.598-0.186-1.193-0.298-1.773c-0.115-0.597,0.062-1.243-0.053-1.822
		c-0.119-0.596-0.307-1.168-0.424-1.747c-0.121-0.596-0.051-1.224-0.171-1.801c-0.123-0.594-0.169-1.195-0.289-1.771
		c-0.125-0.594-0.792-1.064-0.913-1.64c-0.125-0.592,0.43-1.316,0.311-1.886c-0.125-0.593-0.635-1.092-0.75-1.662
		c-0.123-0.594,0.033-1.229-0.08-1.796c-0.118-0.597-1.061-1.02-1.166-1.585c-0.112-0.602,0.426-1.302,0.331-1.866
		c-0.104-0.609-0.471-1.151-0.55-1.715c-0.087-0.615-0.467-1.177-0.522-1.737c-0.062-0.625,0.432-1.259,0.414-1.812
		c-0.02-0.639,0.179-1.195,0.228-1.734c0.057-0.626-0.533-1.26-0.564-1.87c-0.031-0.625,0.564-1.332,0.446-1.933
		c-0.12-0.612-0.244-1.285-0.448-1.865c-0.207-0.586-0.722-1.088-1.008-1.635c-0.287-0.55-0.913-0.894-1.274-1.395
		c-0.361-0.502-0.557-1.141-0.985-1.586c-0.428-0.445-1.207-0.474-1.695-0.855c-0.486-0.379-0.997-0.615-1.536-0.923
		c-0.534-0.306-0.814-1.082-1.395-1.311c-0.57-0.225-1.186-0.359-1.795-0.503c-0.594-0.141-1.242,0.141-1.868,0.084
		c-0.626-0.057-1.211-0.38-1.82-0.349c-0.625,0.032-1.209,0.227-1.811,0.345c-0.611,0.121-1.112,0.49-1.691,0.695
		c-0.586,0.206-1.445-0.222-1.991,0.063c-0.55,0.288-0.783,1.105-1.284,1.466c-0.502,0.361-0.951,0.741-1.397,1.17
		c-0.445,0.428-0.953,0.774-1.334,1.263c-0.379,0.486-1,0.828-1.309,1.368c-0.306,0.534-0.085,1.321-0.314,1.9
		c-0.225,0.57-0.537,1.086-0.681,1.695c-0.141,0.594-0.254,1.181-0.311,1.807c-0.055,0.608,0.215,1.221,0.189,1.829
		c-0.026,0.608-0.689,1.197-0.688,1.807c0.001,0.606-0.236,1.232-0.21,1.843c0.025,0.604,0.866,1.165,0.914,1.775
		c0.047,0.603,0.139,1.193,0.207,1.804c0.066,0.599-0.518,1.282-0.435,1.892c0.082,0.596,0.181,1.202,0.277,1.809
		c0.094,0.594,0.924,1.069,1.031,1.675c0.104,0.592-0.232,1.269-0.117,1.875c0.112,0.591,0.527,1.128,0.647,1.734
		c0.118,0.588,0.257,1.179,0.381,1.784c0.121,0.589-0.525,1.346-0.398,1.951c0.123,0.589,0.75,1.082,0.877,1.687
		c0.122,0.58,0.275,1.164,0.401,1.764c0.122,0.581-0.079,1.238,0.045,1.838c0.121,0.582,0.751,1.068,0.873,1.668
		c0.118,0.582,0.305,1.161,0.424,1.762c0.115,0.583,0.054,1.211,0.168,1.812c0.111,0.584-0.38,1.29-0.27,1.892
		c0.107,0.585,0.363,1.15,0.469,1.752c0.104,0.586,0.786,1.082,0.888,1.686c0.099,0.588-0.334,1.271-0.238,1.875
		c0.094,0.589,0.753,1.099,0.844,1.705c0.089,0.59,0.13,1.197,0.216,1.803c0.083,0.591-0.302,1.254-0.221,1.86
		c0.079,0.592,0.091,1.197,0.167,1.804c0.074,0.593,0.508,1.149,0.578,1.757c0.068,0.594-0.362,1.25-0.298,1.858
		c0.063,0.594,0.419,1.164,0.479,1.771c0.058,0.597,0.397,1.174,0.451,1.784c0.053,0.597-0.325,1.236-0.277,1.847
		c0.048,0.607,0.149,1.201,0.188,1.792c0.041,0.607,0.063,1.206,0.096,1.797c0.033,0.608,0.078,1.205,0.103,1.796
		c0.026,0.609,0.691,1.188,0.708,1.78c0.018,0.609-0.473,1.225-0.464,1.817c0.008,0.609-0.162,1.21-0.163,1.803
		c-0.001,0.61,0.37,1.213,0.359,1.806c-0.01,0.61-0.406,1.201-0.425,1.793c-0.021,0.609,0.504,1.234,0.474,1.826
		c-0.031,0.608-0.785,1.164-0.826,1.755c-0.042,0.607-0.16,1.193-0.212,1.783c-0.053,0.606,0.706,1.282,0.642,1.872
		c-0.064,0.604-0.351,1.18-0.426,1.768c-0.077,0.603-0.531,1.146-0.617,1.733c-0.088,0.601-0.418,1.15-0.516,1.736
		c-0.1,0.598,0.062,1.23-0.047,1.815c-0.111,0.596,0.396,1.309,0.277,1.894c-0.122,0.592-0.364,1.16-0.494,1.742
		c-0.131,0.589-0.545,1.111-0.685,1.691c-0.14,0.585-0.636,1.078-0.783,1.657c-0.148,0.582-0.349,1.146-0.504,1.724
		c-0.155,0.58-0.293,1.159-0.455,1.736c-0.161,0.576-0.289,1.158-0.455,1.733c-0.165,0.574,0.281,1.328,0.111,1.904
		c-0.168,0.573-1.005,0.951-1.177,1.528c-0.17,0.572-0.102,1.219-0.274,1.797c-0.171,0.572-0.57,1.08-0.743,1.661
		c-0.17,0.572,0.344,1.353,0.173,1.935c-0.168,0.573-0.733,1.035-0.902,1.618c-0.166,0.573-0.02,1.241-0.185,1.826
		c-0.162,0.574-1.001,0.966-1.163,1.552c-0.158,0.574,0.562,1.392,0.406,1.979c-0.153,0.576-1.145,0.939-1.295,1.528
		c-0.147,0.577,0.385,1.329,0.24,1.92c-0.141,0.578-0.791,1.042-0.929,1.634c-0.135,0.58-0.478,1.123-0.609,1.717
		c-0.128,0.581,0.557,1.345,0.433,1.94c-0.122,0.583-0.79,1.061-0.907,1.658c-0.114,0.584,0.315,1.276,0.206,1.875
		c-0.107,0.586-0.905,1.057-1.007,1.657c-0.1,0.588,0.367,1.274,0.272,1.876c-0.093,0.589-0.432,1.145-0.52,1.747
		c-0.086,0.59,0.272,1.245,0.192,1.849c-0.079,0.591-0.719,1.114-0.792,1.719c-0.072,0.593,0.261,1.237,0.195,1.844
		c-0.065,0.593-0.153,1.186-0.212,1.792c-0.058,0.594-0.467,1.162-0.52,1.771c-0.051,0.595,0.454,1.239,0.409,1.848
		c-0.045,0.609-0.328,1.19-0.369,1.781c-0.042,0.609-0.088,1.208-0.126,1.798c-0.038,0.61,0.052,1.216,0.019,1.805
		c-0.034,0.611-0.751,1.175-0.78,1.764c-0.03,0.611,0.115,1.221,0.091,1.809c-0.025,0.613-0.205,1.211-0.223,1.8
		c-0.019,0.613,0.645,1.232,0.632,1.821c-0.013,0.614-0.08,1.211-0.086,1.8c-0.006,0.615-0.208,1.214-0.208,1.803
		c0.001,0.615-0.54,1.223-0.531,1.811c0.01,0.615,0.028,1.223,0.047,1.81c0.019,0.614,0.952,1.178,0.98,1.764
		c0.03,0.613-0.751,1.258-0.712,1.843c0.041,0.612,0.474,1.185,0.526,1.769c0.054,0.612,0.06,1.215,0.125,1.8
		c0.068,0.61-0.143,1.245-0.063,1.828c0.082,0.606,0.734,1.116,0.828,1.698c0.097,0.602-0.351,1.289-0.242,1.869
		c0.113,0.598,0.498,1.135,0.622,1.714c0.127,0.592,0.017,1.235,0.156,1.813c0.141,0.586,0.499,1.116,0.651,1.694
		c0.153,0.579,0.291,1.163,0.455,1.74c0.163,0.572,0.646,1.054,0.818,1.63c0.17,0.569,0.442,1.108,0.622,1.687
		c0.175,0.565,0.369,1.131,0.552,1.71c0.155,0.491,0.226,1.012,0.382,1.51C17.069,198.922,16.918,199.664,17.072,200.166z"/>
</g>
<path fill="#D3824A" d="M51.78,54.485c-0.184-1.574-0.355-3.061-0.512-4.492l-28.199,2.245c0.191,1.779,0.399,3.603,0.623,5.523
	c0.362,3.112,0.754,6.49,1.108,10.167l28.196-2.245C52.61,61.618,52.178,57.904,51.78,54.485z"/>
</svg>
